<svg width="229" height="1741" viewBox="0 0 229 1741" fill="none" xmlns="http://www.w3.org/2000/svg">
<path d="M0.238288 434.111C0.930181 432.168 2.85972 431.021 4.82425 431.242C5.64295 431.333 6.46094 431.406 7.28337 431.358C27.7955 430.152 53.2016 441.896 80.2473 457.98C55.4886 437.947 32.8284 420.225 6.177 438.437C4.27333 439.738 1.5762 439.278 0.468843 437.256C0.0239752 436.443 -0.13673 435.47 0.128566 434.465C0.15987 434.347 0.196388 434.229 0.238288 434.111Z" fill="#E8D9BC"/>
<path d="M137.044 386.058C138.735 387.136 139.43 389.186 138.867 391.014L138.803 391.22C138.238 393.054 137.008 394.596 135.379 395.61C112.055 410.13 139.059 428.713 95.8929 458.707C116.796 436.339 133.989 384.541 136.601 385.81C136.751 385.884 136.899 385.966 137.044 386.058Z" fill="#E8D9BC"/>
<path d="M172.794 499.602C171.925 501.408 169.972 502.343 168.09 502L167.878 501.961C165.989 501.618 164.313 500.58 163.112 499.082C145.926 477.647 130.681 506.666 95.7747 467.365C120.465 485.465 173.938 496.388 172.988 499.133C172.933 499.291 172.869 499.447 172.794 499.602Z" fill="#E8D9BC"/>
<path d="M141.382 498.262C140.487 498.759 139.043 498.689 137.878 498.151L137.747 498.09C136.577 497.549 135.671 496.791 135.159 495.962C127.834 484.094 112.624 491.795 96.9783 469.298C109.805 481.531 142.711 497.291 141.593 498.126C141.529 498.174 141.459 498.22 141.382 498.262Z" fill="#E8D9BC"/>
<path d="M148.441 450.924C148.22 451.923 147.211 452.958 146.035 453.473L145.902 453.532C144.722 454.049 143.554 454.225 142.594 454.058C128.852 451.676 124.536 468.169 97.3204 464.971C114.981 463.476 148.595 449.285 148.479 450.675C148.473 450.756 148.46 450.838 148.441 450.924Z" fill="#E8D9BC"/>
<path d="M10.913 512.917C9.92649 511.172 10.2749 509.035 11.6306 507.686L11.7836 507.534C13.1438 506.18 14.9536 505.396 16.8687 505.266C44.2793 503.399 29.1638 474.312 81.3593 468.101C52.4009 478.033 12.8976 515.691 11.1876 513.344C11.0892 513.209 10.9974 513.067 10.913 512.917Z" fill="#E8D9BC"/>
<path d="M121.147 512.604C120.133 513.28 118.832 513.145 117.966 512.357L117.868 512.268C116.999 511.478 116.457 510.388 116.304 509.207C114.115 492.316 97.1696 502.769 91.4009 470.704C98.5109 488.249 122.742 511.271 121.394 512.418C121.316 512.484 121.234 512.546 121.147 512.604Z" fill="#E8D9BC"/>
<path d="M90.4472 540.386C88.8941 540.399 87.5868 539.355 87.195 537.922L87.1507 537.76C86.7567 536.323 86.9194 534.794 87.5622 533.44C96.7628 514.065 71.3889 513.377 87.1185 475.479C82.7637 498.954 93.0744 540.082 90.8397 540.36C90.711 540.376 90.58 540.385 90.4472 540.386Z" fill="#E8D9BC"/>
<path d="M34.2321 513.907C33.2315 512.72 33.2016 511.047 34.0551 509.831L34.1513 509.694C35.0073 508.473 36.2882 507.623 37.7408 507.255C58.5312 501.98 42.8738 482.001 82.0935 469.938C61.2371 481.56 36.1424 515.736 34.5025 514.193C34.408 514.104 34.3177 514.009 34.2321 513.907Z" fill="#E8D9BC"/>
<path d="M46.8465 496.562C46.2137 495.971 46.1967 495.081 46.739 494.398L46.8001 494.321C47.3441 493.636 48.1569 493.131 49.0779 492.874C62.2611 489.207 52.3602 479.214 77.2317 471.171C63.9995 478.221 48.0552 497.457 47.0175 496.703C46.9578 496.659 46.9006 496.612 46.8465 496.562Z" fill="#E8D9BC"/>
<path d="M65.283 509.203C64.4827 508.872 64.1542 508.045 64.422 507.215L64.4522 507.121C64.7205 506.289 65.3039 505.53 66.0762 504.966C77.1296 496.9 64.3486 491.024 84.8071 474.753C74.8965 486.004 66.7291 509.616 65.4926 509.275C65.4214 509.255 65.3514 509.231 65.283 509.203Z" fill="#E8D9BC"/>
<path d="M11.3465 453.161L13.357 459.349H19.8631L14.5996 463.173L16.6101 469.361L11.3465 465.537L6.08299 469.361L8.09347 463.173L2.82996 459.349H9.33606L11.3465 453.161Z" fill="#E8D9BC"/>
<path d="M101.004 379L103.014 385.188H109.521L104.257 389.012L106.268 395.2L101.004 391.375L95.7405 395.2L97.751 389.012L92.4874 385.188H98.9935L101.004 379Z" fill="#E8D9BC"/>
<path d="M148.6 445.413L150.611 451.601H157.117L151.853 455.425L153.864 461.613L148.6 457.788L143.337 461.613L145.347 455.425L140.083 451.601H146.59L148.6 445.413Z" fill="#E8D9BC"/>
<path d="M52.301 512.933L54.3114 519.121H60.8175L55.554 522.945L57.5645 529.133L52.301 525.308L47.0374 529.133L49.0479 522.945L43.7844 519.121H50.2904L52.301 512.933Z" fill="#E8D9BC"/>
<path d="M88.8284 445.413L90.8389 451.601H97.3449L92.0814 455.425L94.0919 461.613L88.8284 457.788L83.5648 461.613L85.5753 455.425L80.3118 451.601H86.8179L88.8284 445.413Z" fill="#E8D9BC"/>
<path d="M139.059 379L141.07 385.188H147.576L142.312 389.012L144.323 395.2L139.059 391.375L133.796 395.2L135.806 389.012L130.543 385.188H137.049L139.059 379Z" fill="#E8D9BC"/>
<path d="M7.93624 501.292L10.4859 507.277L16.9665 506.702L12.0616 510.977L14.6112 516.962L9.03022 513.618L4.12533 517.893L5.58097 511.552L0 508.208L6.4806 507.633L7.93624 501.292Z" fill="#E8D9BC"/>
<path d="M63.5937 386.971C64.7672 386.394 66.0861 386.783 66.8329 387.83L66.9172 387.948C67.6673 388.999 68.0236 390.327 67.9611 391.686C67.0662 411.137 86.5209 402.443 86.4888 439.66C82.423 418.574 61.6972 388.183 63.3042 387.136C63.3968 387.076 63.4933 387.021 63.5937 386.971Z" fill="#E8D9BC"/>
<path d="M46.6277 415.802C47.1479 415.153 48.0015 415.063 48.6987 415.522L48.7774 415.573C49.4773 416.033 50.0246 416.763 50.3407 417.616C54.8649 429.827 63.7173 419.605 73.333 442.55C65.5543 430.571 45.8591 417.023 46.5051 415.976C46.5424 415.916 46.5832 415.858 46.6277 415.802Z" fill="#E8D9BC"/>
<path d="M31.6528 451.296C31.7241 450.467 32.3838 449.918 33.2182 449.912L33.3123 449.911C34.1497 449.904 35.0105 450.206 35.7475 450.74C46.2972 458.374 47.9718 444.956 68.7213 458.681C55.5958 453.049 31.6929 452.739 31.6477 451.509C31.6451 451.438 31.6467 451.367 31.6528 451.296Z" fill="#E8D9BC"/>
<path fill-rule="evenodd" clip-rule="evenodd" d="M81.8361 1117.7C82.9645 1117.62 84.774 1117.29 85.25 1118.19C85.7983 1119.18 86.6219 1128.52 87.2117 1130.01C87.6322 1131.12 88.0857 1132 88.1753 1133.39L70.0376 1135.78L69.8431 1131.88L70.81 1132.48C71.2722 1132.76 70.8023 1132.58 71.4373 1132.78L71.4354 1131.28C70.2251 1131.02 70.7632 1130.94 69.8789 1131.51L69.336 1119.5L81.8361 1117.7ZM163.492 1116.06L162.852 1111.02L178.968 1108.88C179.393 1112.67 181.186 1123.78 182.288 1126.79L171.492 1128.24C171.64 1127.12 171.736 1126.42 170.526 1126.16C170.141 1127.33 170.894 1127.18 170.404 1128.31C168.293 1128.17 170.565 1128.8 168.279 1126.4C167.3 1125.38 168.586 1125.59 167.06 1125.58C166.248 1127.4 167.661 1126.17 168.382 1128.4C167.525 1129.03 166.771 1129.67 165.732 1129.98L165.132 1125.1C165.132 1125.1 166.24 1125.19 166.024 1124.26C165.972 1124 165.68 1123.78 165.51 1123.71L164.582 1123.44L163.697 1117.24L164.507 1116.55L163.687 1116.16C163.642 1116.13 163.557 1116.1 163.492 1116.06ZM202.389 1124.5C196.692 1125.93 189.87 1125.82 184.257 1126.61C184.138 1125.97 183.752 1124.15 183.948 1123.6C183.963 1123.56 184.013 1123.47 184.031 1123.45C184.066 1123.4 184.141 1123.35 184.159 1123.33C184.648 1122.84 184.841 1123.59 184.894 1122.2C184.049 1121.94 184.479 1121.97 183.678 1122.39C182.418 1118.43 181.933 1113.17 181.08 1108.38L201.276 1105.36C202.83 1110.9 200.064 1120.3 202.389 1124.5ZM203.851 1104.99C208.092 1104.45 220.511 1100.99 221.142 1103.31L222.244 1112.11C222.227 1115.28 222.511 1118.41 223.515 1121.46C218.405 1120.89 209.953 1123.88 204.231 1124.27C203.827 1121.16 204.438 1121.99 204.993 1120.89C204.398 1119.52 204.1 1120.9 204.014 1116.89C204.006 1115.83 203.945 1113.69 204.067 1112.7C204.375 1110.41 204.513 1112.68 204.894 1111.15C205.239 1109.83 203.451 1110.99 203.851 1104.99ZM31.1168 1126.65C34.5365 1125.54 39.6663 1124.95 43.3375 1124.4C44.1209 1131.43 43.4242 1132.04 45.7006 1139.32C43.0047 1140.04 35.1544 1141.14 35.0392 1141.2C33.6923 1141.65 34.5795 1142.09 32.6819 1142.69L32.0528 1137.24C33.0848 1137.87 32.8322 1137.79 33.1455 1137.53C33.6017 1137.11 33.3751 1136.59 33.0607 1136.18C32.45 1136.34 32.2565 1136.75 31.9085 1136.89L31.1168 1126.65ZM67.5291 1119.84C67.7583 1122.7 67.3805 1125.08 67.74 1127.84C68.0697 1130.52 68.3417 1133.23 68.7089 1135.88L47.9835 1138.71C48.5176 1138.1 48.5046 1138.33 48.5864 1137.5C48.1716 1137.27 48.4266 1137.36 47.8738 1137.33L47.1383 1137.3C46.626 1134.62 47.0515 1135.76 47.3948 1134.26C45.8008 1132.04 46.5575 1133.89 46.0911 1129.6C45.8975 1127.7 45.6789 1125.76 45.4353 1123.78L67.5291 1119.84ZM99.6958 1121.47C97.5765 1121.59 96.1513 1121.24 93.704 1121.5C91.0565 1121.78 90.5622 1123.71 89.0916 1123.48C88.4685 1122.38 88.443 1120.19 88.2185 1118.7C87.7368 1115.77 86.8892 1115.49 88.6864 1115.07C91.1544 1114.48 95.8936 1114.02 98.5636 1113.75L99.6958 1121.47ZM203.618 1102.6C203.296 1098.82 203.209 1091.34 202.233 1088.03L219.178 1086.19L220.806 1099.92L203.618 1102.6ZM146.203 1107.51L159.468 1105.98L160.289 1112.98C157.362 1112.98 152.319 1113.46 149.683 1114.65C148.373 1115.24 148.805 1115.61 147.538 1116.38L146.203 1107.51ZM177.108 1091.44C177.508 1094.03 177.275 1096.27 177.593 1098.69C177.916 1101.15 178.331 1103.7 178.593 1106.16C176.425 1106.71 174.416 1106.9 172.026 1107.3L171.727 1106.68C171.174 1105.82 171.606 1106.19 170.6 1106.27L170.907 1107.62L165.884 1108.58C165.971 1107.8 166.141 1107.86 165.687 1107.14C164.31 1107.51 164.647 1107.94 165.381 1108.95L162.743 1109.47L161.624 1093.93L177.108 1091.44ZM29.675 1107.82C34.1569 1107.25 37.3922 1105.8 41.4691 1105.07C42.3569 1109.98 42.1277 1115.55 42.6073 1118.29C42.9115 1119.94 43.2733 1120.41 43.3167 1122.41C41.437 1122.83 38.667 1123.11 36.9295 1123.68C35.9332 1124.01 34.8419 1124.23 33.8782 1124.49C32.3838 1124.89 32.7811 1125.15 31.1465 1125.57C30.8412 1123.25 30.6734 1120.9 30.4281 1118.57C29.851 1113.38 30.477 1114.34 30.9949 1113.1C30.2394 1111.92 30.767 1113.23 30.2387 1112.24C29.8425 1111.5 29.8451 1109.04 29.675 1107.82ZM201.517 1087.99C200.84 1089.92 201.419 1093.3 201.319 1095.47C201.233 1096.92 201.759 1097.89 201.621 1099.25L201.373 1103.02L180.618 1105.77L178.229 1091.3L201.517 1087.99ZM43.1317 1104.38C47.5626 1104.22 62.2833 1100.48 64.6297 1100.56C64.7123 1100.57 64.8496 1100.69 64.8823 1100.63C64.9325 1100.54 65.0498 1100.67 65.1323 1100.68L65.8597 1104.61C67.4487 1111.58 66.692 1113.36 67.3435 1117.67C64.2946 1118.49 59.3671 1119.24 56.1591 1119.59C52.4907 1120 48.765 1121.44 45.3168 1121.82L44.7093 1118.04C44.7669 1118.01 44.8621 1117.96 44.8996 1117.93L45.8535 1117.59C45.7579 1116.65 46.1998 1117.1 45.4576 1116.69L44.6073 1116.55C44.1424 1112.76 44.6618 1107.24 43.1317 1104.38ZM81.2375 1097.62C81.7053 1096.47 80.8708 1097.12 82.2799 1096.84C82.7705 1100.34 82.81 1102.97 83.1706 1106.4C83.4848 1109.29 84.583 1112.93 84.6225 1115.57C81.3579 1115.46 81.5904 1115.53 78.2016 1116.23C75.984 1116.71 73.457 1116.82 71.1847 1117.18C71.2609 1116.64 71.4974 1114.76 70.4021 1115.77C69.194 1116.85 72.1168 1116.49 69.3654 1117.42L67.4718 1105.33C67.5445 1105.26 67.6372 1105.18 67.6923 1105.14C67.7275 1105.09 67.8177 1105 67.8729 1104.95C67.928 1104.9 68.0007 1104.84 68.0558 1104.79C68.545 1104.14 68.3417 1104.47 68.3508 1103.72C66.9737 1104.25 68.1309 1103.58 67.5237 1104.43L66.422 1100.09C71.1823 1099.14 75.178 1097.76 80.1656 1097L81.2375 1097.62ZM149.663 1142.26C142.355 1143.32 134.427 1144.45 127.018 1145.18L110.649 1146.59C106.775 1146.82 108.439 1146.96 105.915 1147.92C105.647 1143.42 102.738 1125.06 101.818 1119.73C101.008 1114.95 100.558 1110.13 99.8147 1105.25C99.2247 1101.44 97.2398 1094.72 97.6424 1091.22C98.2141 1089.42 106.241 1088.6 107.688 1088.3C115.072 1086.7 136.652 1083.21 142.506 1083.22C142.244 1084.07 142.64 1083.65 141.569 1083.71C141.465 1087.98 142.177 1096.91 142.858 1101.46L143.236 1104.7C143.526 1107.39 143.933 1110.04 144.183 1112.73C144.643 1117.47 146.247 1122.41 147.09 1127.12C147.473 1129.24 147.988 1132.1 148.498 1134.28C149.071 1136.78 149.155 1139.62 149.663 1142.26ZM95.5107 1060.16C97.9017 1059.28 104.663 1058.73 107.669 1058.06C109.724 1057.58 111.586 1057.19 113.581 1056.72C115.478 1056.29 117.7 1056.18 119.647 1055.82L131.842 1053.85C133.862 1053.42 136.166 1053.32 138.258 1052.98C140.41 1052.63 142.063 1052.02 143.847 1051.66C143.897 1055.7 143.067 1063.66 141.473 1067.55C140.879 1069.01 137.797 1075.01 137.007 1075.86C136.22 1076.73 136.101 1076.25 135.36 1077.5C132.691 1082.08 128.035 1082.06 123.243 1082.59C119.635 1082.99 113.893 1084.55 110.734 1084.15C107.925 1083.78 104.201 1081.92 102.369 1080.08C100.092 1077.76 98.6952 1074.66 97.6697 1070.95L95.5107 1060.16ZM111.075 1054.86C111.282 1052.74 111.91 1049.42 113.958 1048.39L114.694 1054.05L111.075 1054.86ZM115.191 1047.35C116.406 1046.81 116.546 1046.63 117.941 1047.07C118.914 1048.37 119.309 1051.25 119.539 1053.29L115.613 1053.75L115.191 1047.35ZM126.986 1051.38L120.709 1052.88L119.393 1046.81C125.4 1046.42 124.266 1049.42 126.392 1051.01C126.659 1051.2 126.741 1051.21 126.986 1051.38ZM108.462 1055.42C105.267 1055.88 102.086 1056.45 99.0399 1056.97C95.2583 1057.62 96.6801 1057.28 93.6864 1059.21C92.9724 1059.68 93.5712 1059.27 93.0423 1059.76L92.5861 1060.18C92.5485 1060.2 92.4783 1060.29 92.4407 1060.32C92.4232 1060.34 92.3505 1060.41 92.2953 1060.46C93.8098 1066 92.5556 1074.8 100.292 1081.69C101.615 1082.87 102.837 1083.39 104.464 1084.23L105.52 1085.54L103.483 1085.83C100.761 1086 101.363 1086.11 99.6912 1087.72C99.2575 1088.16 98.6615 1088.43 98.1501 1088.9C97.1077 1088.52 98.0799 1088.99 97.1509 1088.21C95.09 1089.14 95.2164 1088.51 95.4306 1092.57C95.6648 1096.62 97.104 1101.05 97.5757 1105.22C97.8062 1107.43 98.1819 1109.65 98.4454 1111.63C96.8035 1112 94.4542 1112.06 92.5875 1112.25C90.6207 1112.45 88.3972 1113.38 87.051 1113.5C86.2226 1110.07 86.0292 1106.84 85.4234 1103.4C85.1515 1101.85 84.5732 1094.84 83.7362 1094.31C82.7468 1093.7 71.9586 1096.37 70.1689 1096.85C67.4379 1097.61 65.3959 1097.86 62.5606 1098.27C60.3834 1098.58 57.9924 1099.47 55.5549 1099.81C51.2006 1100.42 44.2462 1101.38 40.411 1102.58C38.3958 1103.22 35.4424 1103.82 33.1901 1104.18C30.8201 1104.57 31.8741 1104.22 30.5079 1105.51C29.1945 1106.72 29.0157 1106.09 27.569 1106.39L27.9174 1115.67C27.8797 1119.33 29.5101 1134.08 30.0657 1137.61C30.2607 1138.86 30.5979 1139.13 30.7964 1139.91C31.0939 1141.18 31.0414 1143.56 31.5177 1144.29C33.6402 1145.03 42.031 1142.7 44.8087 1142.31L72.8798 1138.07C77.5846 1137.33 82.5768 1136.78 87.2244 1135.9L87.9638 1136.46C88.5513 1135.45 88.3272 1136.11 88.9868 1135.36C90.5294 1135.84 89.2077 1136.16 90.3822 1135.63C90.6564 1134.89 89.4357 1126.45 89.2463 1124.91C89.949 1125 98.6602 1123.79 99.9716 1123.55C100.227 1125.95 100.776 1127.78 101.036 1130.06C101.275 1132.16 101.651 1135.06 102.085 1137.1C102.597 1139.61 102.782 1144.91 103.813 1147.18L104.817 1150.06C105.957 1150.41 126.544 1148.1 130.055 1147.73C136.13 1147.07 143.834 1145.59 149.574 1145.01C152.162 1144.73 153.21 1145.82 155.187 1145.54C153.553 1144.32 154.433 1143.86 153.086 1143.16L152.198 1142.72C151.438 1139.17 150.922 1134.49 150.265 1130.63C149.56 1126.55 148.756 1122.32 147.997 1117.97C150.574 1115.62 157.516 1115.72 160.649 1115.25C160.854 1117.91 161.651 1121.75 162.094 1124.36C162.491 1126.77 163.43 1128.95 164.299 1131.05C164.854 1132.43 163.695 1130.11 164.495 1131.5C164.525 1131.57 164.615 1131.64 164.643 1131.7C165.039 1132.28 177.718 1130.11 179.324 1129.96C188.135 1129.06 200.528 1128.2 208.932 1126.32C211.543 1125.73 220.924 1123.68 223.167 1124.24C223.741 1123.46 223.293 1123.62 224.226 1122.77C224.807 1123.53 224.561 1123.68 225.469 1123.96C225.901 1123.17 225.499 1115.77 225.436 1114.76C225.26 1111.19 224.66 1107.63 224.325 1104.07C223.965 1100 222.516 1087.38 220.686 1084.4C215.854 1083.45 197.99 1085.58 192.071 1086.7C189.628 1087.16 186.941 1087.29 184.488 1087.83L169.859 1089.67C168.475 1089.82 167.486 1090.21 166.332 1090.41C164.881 1090.67 164.289 1090.31 162.772 1090.7L159.683 1093.68L159.606 1100.98C159.482 1103.78 161.455 1104.45 152.531 1104.43C148.708 1104.42 148.498 1105.68 146.073 1106.12L143.389 1084.29C143.911 1083.74 143.847 1083.22 144.433 1082.7C145.258 1081.97 145.421 1081.65 144.826 1080.28C141.631 1080.41 138.901 1080.52 135.578 1080.77L136.92 1079.28C137.384 1078.76 137.755 1078.47 138.231 1077.88C141.372 1074 140.561 1074.18 142.413 1071.23C143.043 1070.24 142.673 1070.37 143.142 1069.4C143.63 1068.4 143.722 1068.82 144.172 1067.52C145.597 1063.41 146.29 1058.47 145.647 1053.9L145.598 1049.38C143.807 1049.51 144.038 1050.07 142.137 1050.15L130.256 1051.53C129.042 1050.58 128.86 1049.93 127.817 1048.88C124.734 1045.79 122.679 1043.95 117.322 1044.18C113.196 1044.34 111.151 1045.06 109.42 1047.35C107.757 1049.52 107.323 1052.11 108.462 1055.42Z" fill="#E8D9BC"/>
<path fill-rule="evenodd" clip-rule="evenodd" d="M128.327 1089.72C127.947 1090.92 129.523 1091.02 130.437 1091.84C132.489 1093.66 131.079 1092.27 133.599 1092.93C134.419 1093.15 134.338 1094.81 134.864 1095.78C135.507 1097.04 135.776 1096.42 137.567 1096.44L138.116 1099.42C140.87 1099.67 138.963 1095.4 137.863 1095.05C137.44 1094.92 137.307 1094.99 136.935 1094.94C136.83 1094.91 136.54 1094.86 136.435 1094.84C134.727 1094.34 135.81 1093.23 134.568 1091.39L131.706 1091.42C130.976 1090.11 128.865 1089.47 128.327 1089.72Z" fill="#E8D9BC"/>
<path fill-rule="evenodd" clip-rule="evenodd" d="M134.427 1074.04C136.456 1073.69 138.703 1067.83 139.099 1066.26L140.531 1058.57C140.569 1058.22 140.61 1057.56 140.569 1057.22L140.026 1055.79C138.803 1055.92 139.648 1058.17 139.295 1059.92C138.756 1062.65 137.379 1070.13 135.387 1071.93C134.582 1072.66 133.932 1072.66 134.427 1074.04Z" fill="#E8D9BC"/>
<path fill-rule="evenodd" clip-rule="evenodd" d="M144.015 1140.61C144.278 1140.44 144.852 1140.82 144.596 1137.9C144.493 1136.58 144.374 1135.11 144.231 1133.78L143.233 1126.49C143.226 1126.43 143.171 1126.32 143.146 1126.28C143.121 1126.24 143.089 1126.15 143.042 1126.09C141.744 1126.94 142.324 1127.2 142.625 1129.15C143.059 1132.02 143.281 1139.77 144.015 1140.61Z" fill="#E8D9BC"/>
<path fill-rule="evenodd" clip-rule="evenodd" d="M134.503 1110.53L134.235 1113.3C134.935 1113.54 137.713 1113.99 137.782 1114.55C137.812 1114.63 137.859 1114.69 137.864 1114.73C138.18 1116.64 137.342 1116.92 139.648 1117C139.325 1116.03 139.11 1116.1 138.972 1115.14C138.708 1113.32 139.874 1113.22 135.472 1112.46C135.417 1111.19 135.612 1108.97 134.244 1108.92C133.671 1108.88 132.955 1109.18 133.096 1109.83C133.252 1110.44 133.978 1110.39 134.503 1110.53Z" fill="#E8D9BC"/>
<path fill-rule="evenodd" clip-rule="evenodd" d="M102.82 1096.31L103.891 1102.37C105.415 1102.37 103.962 1097.16 103.682 1095.88L102.82 1096.31Z" fill="#E8D9BC"/>
<path fill-rule="evenodd" clip-rule="evenodd" d="M101.207 1069.8C101.659 1068.85 100.931 1065.41 100.761 1064.03C99.484 1064.71 99.9594 1067.09 100.329 1068.77C100.574 1069.94 100.472 1069.61 101.207 1069.8Z" fill="#E8D9BC"/>
<path fill-rule="evenodd" clip-rule="evenodd" d="M140.136 1131.55C140.106 1131.63 140.048 1131.66 140.06 1131.76C140.123 1132.93 140.579 1136.14 141.053 1136.86C141.652 1136.44 141.807 1137.37 141.309 1133.82C141.147 1132.66 140.879 1131.31 140.136 1131.55Z" fill="#E8D9BC"/>
<path fill-rule="evenodd" clip-rule="evenodd" d="M135.071 1063.75C135.97 1063.29 135.629 1059.03 135.22 1058.35C134.5 1059.11 134.672 1059.51 134.657 1060.88C134.648 1061.63 134.477 1063.05 135.071 1063.75Z" fill="#E8D9BC"/>
<path fill-rule="evenodd" clip-rule="evenodd" d="M69.3268 1113.14C70.692 1113.5 70.0545 1113.27 70.6115 1112.52L70.9125 1112.15C71.369 1111.57 71.5956 1112.09 71.1983 1110.68C70.4175 1110.77 70.2099 1110.74 69.5666 1112.12L69.3268 1113.14Z" fill="#E8D9BC"/>
<path fill-rule="evenodd" clip-rule="evenodd" d="M72.2326 1114.96C72.6172 1115.27 72.3626 1115.02 72.6997 1115.29C74.0236 1116.3 73.0581 1116.22 74.2343 1116.03C74.4126 1114.51 74.3059 1115.29 73.5619 1114.53C73.517 1114.49 73.4471 1114.42 73.4021 1114.39C72.8854 1113.82 73.368 1113.94 72.5633 1113.51C72.0892 1114.12 72.1598 1113.87 72.2326 1114.96Z" fill="#E8D9BC"/>
<path fill-rule="evenodd" clip-rule="evenodd" d="M49.3126 1116.8L50.3684 1117.95C49.9579 1119.24 49.8203 1119.28 51.3611 1119.41C51.3248 1117.63 51.3112 1119.34 50.5046 1116.25L49.3126 1116.8Z" fill="#E8D9BC"/>
<path fill-rule="evenodd" clip-rule="evenodd" d="M106.113 1099.95C107.002 1099.25 106.248 1096.09 105.804 1095.62C105.484 1096.81 105.314 1098.91 106.113 1099.95Z" fill="#E8D9BC"/>
<path fill-rule="evenodd" clip-rule="evenodd" d="M206.35 1097.88C207.97 1097.33 207.265 1097.22 206.943 1096.42C206.359 1094.97 207.527 1094.89 206.001 1094.71C205.518 1096.07 205.918 1095.03 206.164 1097.03C206.287 1098.03 206.084 1097.2 206.35 1097.88Z" fill="#E8D9BC"/>
<path fill-rule="evenodd" clip-rule="evenodd" d="M187.192 1125.35C188.19 1124.38 187.469 1123.15 186.304 1122.92C185.969 1123.84 186.219 1125.05 187.192 1125.35Z" fill="#E8D9BC"/>
<path fill-rule="evenodd" clip-rule="evenodd" d="M137.45 1134.5C137.595 1134.36 137.745 1134.74 137.879 1133.85C137.983 1133.05 137.321 1131.47 137.043 1130.69C136.589 1131.13 136.477 1130.72 136.849 1132.26C137.04 1132.98 137.171 1133.88 137.45 1134.5Z" fill="#E8D9BC"/>
<path fill-rule="evenodd" clip-rule="evenodd" d="M35.2133 1140.47C35.6231 1139.5 35.1015 1138.9 34.3924 1138.25C33.716 1138.7 33.5832 1138.78 33.9545 1139.48C34.4828 1140.48 34.3904 1140.39 35.2133 1140.47Z" fill="#E8D9BC"/>
<path fill-rule="evenodd" clip-rule="evenodd" d="M102.368 1067.51C102.695 1066.69 102.33 1065.05 101.919 1064.19L101.672 1063.83C101.25 1064.86 101.766 1066.75 102.368 1067.51Z" fill="#E8D9BC"/>
<path fill-rule="evenodd" clip-rule="evenodd" d="M48.504 1135.02C49.191 1135.48 49.0435 1135.44 50.2144 1135.37L50.0472 1134.01C48.8436 1134.14 48.7635 1134.15 48.504 1135.02Z" fill="#E8D9BC"/>
<path fill-rule="evenodd" clip-rule="evenodd" d="M71.9077 1130.33C73.2853 1130.79 73.7372 1130 73.2472 1128.66C72.3505 1129.14 73.0298 1128.55 72.3751 1129.34C71.7054 1130.17 72.13 1129.33 71.9077 1130.33Z" fill="#E8D9BC"/>
<path fill-rule="evenodd" clip-rule="evenodd" d="M206.021 1093.55C205.979 1092.22 205.721 1092.1 204.753 1092C204.492 1092.68 204.352 1091.38 204.594 1092.69C204.76 1093.54 205.22 1093.65 206.021 1093.55Z" fill="#E8D9BC"/>
<path fill-rule="evenodd" clip-rule="evenodd" d="M37.5398 1122.53C38.2222 1122.79 36.6983 1122.96 38.4502 1122.66C40.3797 1122.33 39.2133 1121.43 39.2108 1121.41C38.5681 1121.31 37.9493 1121.73 37.5398 1122.53Z" fill="#E8D9BC"/>
<path fill-rule="evenodd" clip-rule="evenodd" d="M164.233 1106.22C165.083 1106.53 165.083 1106.53 165.675 1105.88C165.072 1104.62 165.253 1105.1 164.811 1104.81C164.152 1105.4 164.275 1105.08 164.233 1106.22Z" fill="#E8D9BC"/>
<path fill-rule="evenodd" clip-rule="evenodd" d="M209.934 1122.07C209.659 1118.51 206.932 1122.11 209.934 1122.07Z" fill="#E8D9BC"/>
<path fill-rule="evenodd" clip-rule="evenodd" d="M183.176 1104.93C183.176 1104.93 183.702 1104.91 183.331 1104.04C183.072 1103.42 183.034 1103.61 182.331 1103.51C182.162 1104.12 181.799 1103.31 182.237 1104.4C182.757 1105.65 182.434 1104.84 183.176 1104.93Z" fill="#E8D9BC"/>
<path fill-rule="evenodd" clip-rule="evenodd" d="M189.192 1125.92C189.48 1124.63 189.487 1124.69 188.548 1124.15C188.53 1124.17 187.961 1123.68 188.273 1125.06C188.561 1126.24 188.467 1125.64 189.192 1125.92Z" fill="#E8D9BC"/>
<path fill-rule="evenodd" clip-rule="evenodd" d="M164.988 1103.94C165.089 1103.76 165.924 1103.94 164.704 1102.12C163.612 1102.99 163.841 1103.53 164.988 1103.94Z" fill="#E8D9BC"/>
<path fill-rule="evenodd" clip-rule="evenodd" d="M185.09 1103.8C185.496 1103.63 186.028 1103.83 185.86 1102.79C185.752 1102.07 185.504 1102.21 184.948 1102.15C184.499 1103.12 184.731 1103.2 185.09 1103.8Z" fill="#E8D9BC"/>
<path fill-rule="evenodd" clip-rule="evenodd" d="M187.353 1102.2C187.732 1101.49 187.706 1101.77 187.386 1100.66C186.618 1100.69 186.428 1100.47 186.419 1101.22C186.39 1101.98 186.847 1102.06 187.353 1102.2Z" fill="#E8D9BC"/>
<path fill-rule="evenodd" clip-rule="evenodd" d="M167.399 1123.54C167.971 1122.9 167.88 1123.32 167.607 1122.1C165.964 1121.95 166.234 1123.32 167.399 1123.54Z" fill="#E8D9BC"/>
<path fill-rule="evenodd" clip-rule="evenodd" d="M37.8382 1139.01L39.3513 1139.25L39.177 1137.66C38.2456 1138.02 38.1149 1138.28 37.8382 1139.01Z" fill="#E8D9BC"/>
<path fill-rule="evenodd" clip-rule="evenodd" d="M51.7756 1134.19C52.4187 1134.13 53.7782 1133.62 52.8316 1132.86C52.0648 1132.24 51.6621 1133.43 51.7756 1134.19Z" fill="#E8D9BC"/>
<path fill-rule="evenodd" clip-rule="evenodd" d="M36.155 1120.85C36.3629 1120.73 38.141 1119.82 35.968 1119.33C35.6916 1119.9 35.4942 1118.62 35.7609 1120.29C35.8989 1121.25 36.0152 1120.71 36.155 1120.85Z" fill="#E8D9BC"/>
<path fill-rule="evenodd" clip-rule="evenodd" d="M55.5998 1137.03L56.0862 1136.52C55.7128 1135.63 55.7929 1135.62 54.9148 1135.59C54.4924 1136.61 54.5721 1136.77 55.5998 1137.03Z" fill="#E8D9BC"/>
<path fill-rule="evenodd" clip-rule="evenodd" d="M47.6419 1130.98C47.6394 1130.96 48.6882 1130.73 47.3151 1129.31C46.9193 1129.56 46.7616 1129.6 46.7905 1130.17C46.8664 1130.95 47.1519 1130.79 47.6419 1130.98Z" fill="#E8D9BC"/>
<path fill-rule="evenodd" clip-rule="evenodd" d="M190.87 1123.7C190.71 1124.72 191.028 1124.98 192.121 1124.79L191.867 1123.38L190.87 1123.7Z" fill="#E8D9BC"/>
<path fill-rule="evenodd" clip-rule="evenodd" d="M33.4122 1134.41C34.9822 1136.11 35.8394 1134.16 33.8339 1133.71L33.4122 1134.41Z" fill="#E8D9BC"/>
<path fill-rule="evenodd" clip-rule="evenodd" d="M32.5964 1121.33C33.9303 1121.11 34.311 1120.9 33.5878 1119.81C32.7814 1120.19 32.6087 1120.28 32.5964 1121.33Z" fill="#E8D9BC"/>
<path fill-rule="evenodd" clip-rule="evenodd" d="M208.8 1095.16C210.209 1096.2 209.94 1095.34 210.018 1095.31L210.01 1094.42C209.87 1094.44 210.016 1093.81 209.177 1094.42C208.801 1094.67 208.773 1094.61 208.8 1095.16Z" fill="#E8D9BC"/>
<path fill-rule="evenodd" clip-rule="evenodd" d="M189.325 1123.04C190.655 1122.45 190.251 1121.81 189.141 1121.38C188.784 1122.27 188.759 1122.24 189.325 1123.04Z" fill="#E8D9BC"/>
<path fill-rule="evenodd" clip-rule="evenodd" d="M169.856 1125.68C170.996 1125.19 170.871 1124.84 170.072 1124.13C169.065 1124.7 169.082 1124.84 169.856 1125.68Z" fill="#E8D9BC"/>
<path fill-rule="evenodd" clip-rule="evenodd" d="M35.8357 1137.1L37.3523 1136.87L36.8896 1135.59C36.1156 1136.07 35.9077 1136.2 35.8357 1137.1Z" fill="#E8D9BC"/>
<path fill-rule="evenodd" clip-rule="evenodd" d="M213.808 1121.51C214.328 1120.45 214.094 1120.2 213.009 1119.97C212.569 1121.02 213.046 1121.26 213.808 1121.51Z" fill="#E8D9BC"/>
<path fill-rule="evenodd" clip-rule="evenodd" d="M71.2314 1127.14C71.8123 1126.91 72.002 1127.13 72.0111 1126.38C72.0103 1125.54 71.6272 1125.73 71.0343 1125.71C70.7148 1126.58 70.6677 1126.36 71.2314 1127.14Z" fill="#E8D9BC"/>
<path fill-rule="evenodd" clip-rule="evenodd" d="M184.758 1120.27C185.85 1119.73 185.796 1118.97 184.579 1118.65C184.209 1119.61 184.104 1119.58 184.758 1120.27Z" fill="#E8D9BC"/>
<path fill-rule="evenodd" clip-rule="evenodd" d="M47.3179 1119.58C47.9992 1119.18 47.9831 1119.71 48.1052 1118.72C48.1895 1117.91 47.9861 1118.24 47.6542 1117.86C46.7822 1118.53 46.9824 1118.51 47.3179 1119.58Z" fill="#E8D9BC"/>
<path fill-rule="evenodd" clip-rule="evenodd" d="M186.124 1122.62C187.318 1122.25 187.012 1122.57 187.215 1121.57C186.61 1121.12 186.753 1121.12 185.962 1121.3L186.124 1122.62Z" fill="#E8D9BC"/>
<path fill-rule="evenodd" clip-rule="evenodd" d="M183.123 1101.85C183.899 1101.71 184.169 1101.76 184.215 1101.15C184.267 1100.25 183.784 1100.45 183.228 1100.39L183.123 1101.85Z" fill="#E8D9BC"/>
<path fill-rule="evenodd" clip-rule="evenodd" d="M167.914 1105.59C167.93 1105.55 168.495 1105.68 168.147 1104.67C167.773 1103.62 168.232 1104.37 167.425 1104.08C167.392 1104.15 166.827 1103.85 167.255 1105.02C167.529 1105.76 167.675 1105.46 167.914 1105.59Z" fill="#E8D9BC"/>
<path fill-rule="evenodd" clip-rule="evenodd" d="M205.69 1116.8C206.026 1116.23 205.971 1116.44 206.075 1115.64L205.12 1115.31C204.605 1116.25 204.675 1116.48 205.69 1116.8Z" fill="#E8D9BC"/>
<path fill-rule="evenodd" clip-rule="evenodd" d="M73.5504 1112.78C73.8169 1112.14 74.6577 1112.04 73.7694 1110.93C72.9978 1111.43 72.7612 1112.15 73.5504 1112.78Z" fill="#E8D9BC"/>
<path fill-rule="evenodd" clip-rule="evenodd" d="M181.319 1102.05C181.829 1100.75 181.559 1100.86 180.551 1100.76C180.148 1101.79 180.276 1102 181.319 1102.05Z" fill="#E8D9BC"/>
<path fill-rule="evenodd" clip-rule="evenodd" d="M75.3311 1131.07C75.8969 1130.88 76.0388 1131.2 76.0756 1130.35C76.1198 1129.55 75.7742 1129.71 75.1565 1129.65C74.9398 1130.36 74.8748 1130.33 75.3311 1131.07Z" fill="#E8D9BC"/>
<path fill-rule="evenodd" clip-rule="evenodd" d="M210.262 1119.61C211.941 1117.07 207.55 1118.71 210.262 1119.61Z" fill="#E8D9BC"/>
<path fill-rule="evenodd" clip-rule="evenodd" d="M206.473 1119.37C207.916 1119.37 207.793 1118.54 207.134 1117.8C206.663 1118.27 206.42 1118.44 206.473 1119.37Z" fill="#E8D9BC"/>
<path fill-rule="evenodd" clip-rule="evenodd" d="M185.002 1117.3C185.316 1116.55 185.403 1116.76 184.835 1115.94C184.289 1116.13 184.112 1116.01 184.1 1116.58C184.075 1117.7 184.857 1117.27 185.002 1117.3Z" fill="#E8D9BC"/>
<path fill-rule="evenodd" clip-rule="evenodd" d="M31.867 1118.38L32.6263 1117.78C32.1451 1117 32.2951 1117.06 31.4876 1116.78C31.1582 1117.57 31.2906 1117.66 31.867 1118.38Z" fill="#E8D9BC"/>
<path fill-rule="evenodd" clip-rule="evenodd" d="M76.6677 1115.16C77.4969 1114.63 77.4639 1114.86 76.9209 1113.75C75.8167 1114.19 75.5108 1114.51 76.6677 1115.16Z" fill="#E8D9BC"/>
<path fill-rule="evenodd" clip-rule="evenodd" d="M73.0302 1134.33L73.8745 1133.76C73.3788 1132.71 73.6858 1133.06 72.8358 1132.75C72.4362 1133.64 72.6463 1133.69 73.0302 1134.33Z" fill="#E8D9BC"/>
<path fill-rule="evenodd" clip-rule="evenodd" d="M205.661 1100.54C205.719 1099.52 205.87 1099.93 205.356 1099.22C205.201 1099.28 204.272 1098.66 204.739 1100.15C204.873 1100.58 205.131 1100.52 205.661 1100.54Z" fill="#E8D9BC"/>
<path fill-rule="evenodd" clip-rule="evenodd" d="M77.0985 1132.88C78.4475 1132.61 78.3674 1131.46 76.9642 1131.29L77.0985 1132.88Z" fill="#E8D9BC"/>
<path fill-rule="evenodd" clip-rule="evenodd" d="M35.0284 1122.44C35.0083 1122.44 34.772 1123 34.7569 1123.04C35.9887 1123.8 36.2253 1123.08 35.7276 1121.84C35.0989 1122.18 35.4298 1121.9 35.0284 1122.44Z" fill="#E8D9BC"/>
<path fill-rule="evenodd" clip-rule="evenodd" d="M166.184 1103.75C166.743 1103.5 166.917 1103.76 166.884 1102.99C166.853 1102.41 166.512 1102.45 166.05 1102.32C165.648 1103.19 165.548 1102.87 166.184 1103.75Z" fill="#E8D9BC"/>
<path fill-rule="evenodd" clip-rule="evenodd" d="M47.0387 1115.5C47.8805 1114.9 47.9145 1114.19 46.7692 1113.96C46.4167 1115.06 46.2797 1114.78 47.0387 1115.5Z" fill="#E8D9BC"/>
<path fill-rule="evenodd" clip-rule="evenodd" d="M180.027 1097.5C180.648 1097.26 180.948 1097.38 180.874 1096.78C180.778 1096 180.38 1096.24 179.612 1096.27L180.027 1097.5Z" fill="#E8D9BC"/>
<path fill-rule="evenodd" clip-rule="evenodd" d="M32.5548 1123.31C32.9411 1122.81 33.0022 1123.48 33.1472 1122.34C32.6875 1122.07 32.5624 1122.05 31.7543 1122.09C31.99 1123.01 31.9977 1122.91 32.5548 1123.31Z" fill="#E8D9BC"/>
<path fill-rule="evenodd" clip-rule="evenodd" d="M45.707 1112.27L45.7325 1110.82C45.1369 1110.94 44.799 1111 44.758 1111.49C44.6888 1112.25 45.1619 1112.13 45.707 1112.27Z" fill="#E8D9BC"/>
<path fill-rule="evenodd" clip-rule="evenodd" d="M129.496 1096.75C129.667 1096.48 129.868 1097.13 129.762 1096.1C129.603 1094.48 129.688 1095.67 129.314 1095.27C128.414 1096.05 128.539 1096.07 129.496 1096.75Z" fill="#E8D9BC"/>
<path fill-rule="evenodd" clip-rule="evenodd" d="M46.6871 1119.74C46.0992 1119.75 46.0525 1119.37 45.7982 1120.12C45.393 1121.28 46.1067 1120.97 46.1067 1120.97C46.4452 1120.58 46.7666 1121.22 46.6871 1119.74Z" fill="#E8D9BC"/>
<path fill-rule="evenodd" clip-rule="evenodd" d="M32.2495 1131.73C32.7247 1131.8 31.841 1132.05 32.6997 1131.76C34.1067 1131.3 33.06 1130.56 33.0101 1130.48C32.4615 1130.81 32.2659 1131.04 32.2495 1131.73Z" fill="#E8D9BC"/>
<path fill-rule="evenodd" clip-rule="evenodd" d="M164.167 1099.57C164.748 1099.01 164.624 1098.66 164.145 1098.07C163.491 1098.7 162.995 1098.96 164.167 1099.57Z" fill="#E8D9BC"/>
<path fill-rule="evenodd" clip-rule="evenodd" d="M132.146 1098.63C132.592 1098.29 132.536 1098.99 132.653 1098.12C132.828 1096.74 132.479 1097.54 132.287 1097.3C130.975 1098.7 132.079 1098.58 132.146 1098.63Z" fill="#E8D9BC"/>
<path fill-rule="evenodd" clip-rule="evenodd" d="M206.478 1123.04C207.177 1122.29 207.387 1122.18 206.315 1121.72C205.526 1122.41 205.741 1122.5 206.478 1123.04Z" fill="#E8D9BC"/>
<path fill-rule="evenodd" clip-rule="evenodd" d="M68.265 1107.65L69.122 1108.17C69.5143 1107.23 69.6039 1107.46 69.0275 1106.74C68.2411 1107.12 68.6942 1107 68.265 1107.65Z" fill="#E8D9BC"/>
<path fill-rule="evenodd" clip-rule="evenodd" d="M52.2246 1137.18C52.2319 1136.08 52.2965 1136.27 51.6446 1135.77C51.5611 1136.24 50.5784 1137.18 52.2246 1137.18Z" fill="#E8D9BC"/>
<path fill-rule="evenodd" clip-rule="evenodd" d="M53.5409 1116.65C54.0344 1117.52 53.3751 1116.95 54.335 1117.32C54.6743 1116.61 54.8464 1116.85 54.2176 1116.03C53.8169 1116.25 53.5893 1116.21 53.5409 1116.65Z" fill="#E8D9BC"/>
<path fill-rule="evenodd" clip-rule="evenodd" d="M182.888 1113.5C183.505 1112.73 183.458 1112.67 182.839 1111.94C182.282 1112.7 182.134 1112.98 182.888 1113.5Z" fill="#E8D9BC"/>
<path fill-rule="evenodd" clip-rule="evenodd" d="M208.302 1099.87C209.673 1099.78 209.297 1099.04 208.567 1098.56C208.193 1099.15 208.149 1098.96 208.302 1099.87Z" fill="#E8D9BC"/>
<path fill-rule="evenodd" clip-rule="evenodd" d="M132.603 1060.86C133.135 1060.07 133.238 1059.91 132.411 1059.3C131.901 1060.28 132.091 1060.34 132.603 1060.86Z" fill="#E8D9BC"/>
<path fill-rule="evenodd" clip-rule="evenodd" d="M129.03 1101.56C129.388 1101.82 129.315 1101.72 129.92 1101.85L129.865 1100.58C129.147 1100.85 129.127 1100.85 129.03 1101.56Z" fill="#E8D9BC"/>
<path fill-rule="evenodd" clip-rule="evenodd" d="M165.375 1120.14C165.4 1120.01 165.659 1119.63 165.792 1119.23L165.21 1118.63C164.633 1119.56 164.698 1119.43 165.375 1120.14Z" fill="#E8D9BC"/>
<path fill-rule="evenodd" clip-rule="evenodd" d="M71.0275 1123C71.7341 1122.47 71.9824 1122.18 70.8799 1121.8C70.4803 1122.69 70.4985 1122.34 71.0275 1123Z" fill="#E8D9BC"/>
<path fill-rule="evenodd" clip-rule="evenodd" d="M46.3112 1127.26C47.0052 1126.79 46.8946 1127.05 47.4688 1126.43L46.7719 1125.89L46.3112 1127.26Z" fill="#E8D9BC"/>
<path fill-rule="evenodd" clip-rule="evenodd" d="M162.922 1096.88C163.513 1096.4 163.73 1096.68 163.094 1095.8C162.335 1096.24 162.165 1096.02 162.922 1096.88Z" fill="#E8D9BC"/>
<path fill-rule="evenodd" clip-rule="evenodd" d="M211.047 1098.4C211.109 1097.74 210.553 1098.01 210.041 1097.32L210.711 1098.8C211.072 1098.43 210.973 1099.28 211.047 1098.4Z" fill="#E8D9BC"/>
<path fill-rule="evenodd" clip-rule="evenodd" d="M203.46 1089.58L204.301 1089.64L203.832 1088.64C203.416 1089.06 203.312 1088.87 203.46 1089.58Z" fill="#E8D9BC"/>
<path fill-rule="evenodd" clip-rule="evenodd" d="M45.0439 1107.54L45.1973 1107.13C45.0909 1106.6 45.1453 1106.87 44.9307 1106.62C44.5515 1107.33 44.8591 1107.36 45.0439 1107.54Z" fill="#E8D9BC"/>
<path fill-rule="evenodd" clip-rule="evenodd" d="M73.2201 1729.28C72.685 1725.68 73.293 1721.23 73.5119 1717.52C73.7794 1713.29 74.8008 1710.39 75.8951 1707.04C78.8376 1697.78 80.2967 1697.25 85.3793 1690.93C88.8325 1686.63 93.1126 1683.37 97.4169 1680.28C100.749 1677.93 97.1737 1675.54 107.704 1674.4C109.819 1674.16 110.768 1673.5 113.029 1673.16C114.659 1672.9 116.58 1672.65 118.282 1672.29C124.727 1670.9 135.159 1672.55 140.047 1675.42C144.011 1677.76 149.434 1684.56 152.109 1688.96C159.915 1701.86 159.137 1706.21 163.077 1716.88C163.879 1719.14 163.758 1719.87 164.147 1722.33C164.487 1724.56 165.168 1725.49 165.46 1727.43C161.934 1728.04 149.969 1733.21 144.789 1734.5C138.248 1736.13 127.791 1738.03 120.325 1737.35C111.619 1736.57 103.059 1737.03 94.6933 1735.23C90.9968 1734.45 87.6166 1733.21 84.0661 1732.15C80.4426 1731.05 77.1353 1729.57 73.2201 1729.28ZM195.08 1673.77C198.387 1673.21 199.409 1674.33 199.506 1677.59C199.725 1683.56 191.116 1684.2 190.776 1678.29C190.532 1673.79 193.329 1674.06 195.08 1673.77ZM43.1624 1665.99C44.427 1665.12 47.3938 1663.68 49.0475 1662.88C57.8994 1658.58 69.013 1662.88 76.7705 1666.65C79.7131 1668.08 85.2091 1671.44 87.495 1673.6C88.3218 1674.38 88.8811 1674.96 89.708 1675.74C90.9968 1676.98 91.2887 1676.42 91.5562 1678.19L92.8937 1678.29C90.778 1679.53 84.5038 1685.78 83.069 1687.55C79.9319 1691.39 77.8649 1693.6 75.433 1698.97C72.3446 1705.83 70.8855 1714.65 70.5693 1722.55C70.4477 1726.02 70.9584 1728.45 70.083 1731.66C73.4876 1732.75 77.719 1734.21 81.3667 1735.5C94.8635 1740.21 106.074 1740.58 121.006 1740.65C127.766 1740.7 141.214 1738.25 146.638 1736.25C149.75 1735.13 166.263 1729.45 167.697 1727.97C167.527 1726.51 166.652 1725.83 166.408 1723.98C166.165 1722.18 166.165 1721.23 165.728 1719.56C164.585 1715.11 164.73 1715.4 164.22 1711.37C162.688 1699.24 160.134 1697.56 155.733 1688.89C154.176 1685.82 153.836 1685.97 152.644 1684.1C150.893 1681.33 150.772 1681.74 150.31 1681.01C149.969 1680.43 149.921 1679.89 149.531 1679.26L144.473 1674.28C143.355 1673.41 142.43 1673.11 141.409 1672.17C142.066 1670.9 145.47 1668.86 146.832 1668.08C158.286 1661.64 168.621 1657.97 181.218 1664.85C182.775 1665.7 185.571 1667.23 186.763 1668.35C188.806 1670.27 188.854 1671.15 191.286 1672.82L190.97 1673.31C189.754 1675.25 188.684 1678.22 189.316 1680.23C189.924 1682.23 192.113 1684.27 194.837 1684.34C196.709 1684.41 199.554 1682.81 200.552 1680.43C201.67 1677.83 200.406 1675.35 199.895 1672.9C198.898 1672.63 197.123 1671.83 196.49 1671.73C195.08 1671.49 193.621 1672.77 192.356 1671.75L191.019 1669.81C190.046 1667.01 189.9 1668.3 186.885 1665L182.823 1661.86C182.459 1661.59 181.753 1661.28 181.413 1661.11C180.294 1660.6 179.759 1660.09 178.568 1659.67C166.36 1655.32 160.134 1658.41 149.896 1662.93L143.89 1666.26C137.299 1670.1 140.023 1671.12 135.329 1670.15C131.39 1669.35 127.256 1668.76 123.146 1668.84C121.006 1668.89 116.531 1669.35 114.683 1669.83C112.227 1670.51 113.054 1670.03 110.987 1670.2C110.257 1670.25 108.506 1670.78 107.509 1671C105.077 1671.51 102.986 1672.34 100.992 1673.43C92.991 1677.8 96.809 1677.49 90.6321 1671.58C89.2702 1670.27 86.8141 1668.86 85.2577 1667.57L79.4942 1664C77.0381 1662.93 75.9437 1661.93 73.0985 1661.04C70.3505 1660.16 68.3807 1660.09 65.3895 1659.38C61.8633 1658.58 61.0608 1658.43 57.7778 1659.33C55.4433 1659.99 52.4034 1660.11 49.777 1660.79C44.8161 1662.1 46.105 1662.71 43.5515 1663.61L43.0895 1662.88C43.0408 1662.83 42.9922 1662.71 42.9436 1662.66C41.5088 1660.43 38.1771 1660.01 35.5264 1661.62C33.3134 1662.93 31.1248 1665.65 31.0032 1669.3C30.9302 1671.29 32.1218 1672.9 33.1919 1673.5C35.6237 1674.86 40.4631 1673.33 41.9222 1670.9C42.9679 1669.2 42.822 1668.42 43.1624 1665.99ZM41.1197 1663.03C42.0438 1665.6 42.214 1668.45 40.2928 1670.34C38.8581 1671.73 35.3319 1673.02 33.508 1671.44C30.8816 1669.18 34.4078 1660.62 41.1197 1663.03Z" fill="#E8D9BC"/>
<path fill-rule="evenodd" clip-rule="evenodd" d="M106.317 1686.12C108.944 1685.73 108.871 1685.61 111.157 1686.65C115.34 1688.52 119.839 1690.64 118.525 1697.05C117.431 1702.45 116.118 1702.91 114.197 1704.95C110.695 1708.72 108.36 1711.9 102.402 1709.11C96.4442 1706.29 94.4258 1704.66 94.4987 1698.44C94.6203 1689.91 99.9947 1688.5 101.794 1687.14C103.57 1685.8 103.521 1686.53 106.317 1686.12ZM129.59 1686.43C132.679 1685.46 137.518 1686.55 139.999 1687.72C144.911 1690 147.391 1699.9 143.719 1704.22C139.537 1709.16 133.408 1712.87 127.45 1708.55C125.505 1707.14 123.097 1704.68 122.441 1701.67C121.954 1699.48 122.587 1698.66 122.343 1696.35C121.881 1692.17 124.094 1691.61 126.113 1688.79C127.256 1687.19 127.256 1687.16 129.59 1686.43ZM121.662 1693.02C120.033 1688.47 111.084 1682.06 103.91 1683.88L97.2953 1687.38C92.8694 1691.03 88.4191 1702.13 96.0308 1708.64C98.0006 1710.35 102.524 1712.39 105.345 1712.95C111.741 1714.19 113.2 1712.92 117.115 1708.96C117.82 1708.26 118.379 1707.89 118.914 1707.16C120.301 1705.34 119.912 1703.91 121.492 1702.62C122.66 1705.87 125.164 1708.28 127.523 1709.91C130.296 1711.8 131.949 1714.55 136.521 1713.55C138.71 1713.07 139.634 1713.09 141.604 1712.14C143.014 1711.46 142.528 1711.59 143.403 1710.76C145.178 1709.03 146.492 1709.54 148.218 1705.17C151.526 1696.69 145.884 1687.33 137.907 1684.44C127.329 1680.57 123.049 1691.83 121.662 1693.02Z" fill="#E8D9BC"/>
<path fill-rule="evenodd" clip-rule="evenodd" d="M121.006 1731.54C118.647 1731.54 113.273 1731.73 111.595 1730.93C110.549 1729.98 111.765 1722.81 112.081 1721.91L120.665 1722.52C121.517 1723.4 121.225 1730.18 121.006 1731.54ZM122.538 1722.3C125.286 1721.79 127.547 1721.5 130.612 1721.28C130.685 1724.61 131.876 1727.48 132.314 1730.64L122.976 1731.39L122.538 1722.3ZM132.338 1721.11C132.606 1720.94 132.63 1720.89 133.165 1720.67L135.743 1719.97C136.959 1719.63 138.053 1719.48 138.953 1719.05C139.901 1720.46 141.239 1726.48 141.214 1728.77L133.968 1730.27C132.873 1726.68 132.265 1725.32 132.338 1721.11ZM109.6 1730.93C106.609 1730.76 100.992 1731.08 98.9733 1729.81L98.876 1727.53C99.3381 1724.76 99.5326 1722.74 100.822 1720.07L110.281 1721.72L109.6 1730.93ZM96.8576 1729.74C95.058 1729.3 90.9239 1728.04 89.3432 1727.24C89.4648 1726.29 90.9239 1720.14 91.5805 1719.09C92.2857 1717.93 92.4073 1718.39 93.2098 1717.18L99.0219 1719.31C98.9003 1720.7 97.2467 1729.08 96.8576 1729.74ZM140.923 1718.61C147.562 1717.69 147.027 1713.82 148.85 1721.4C149.24 1723.06 150.042 1724.51 150.188 1726.17L143.014 1728.14L140.923 1718.61ZM149.118 1716.06C150.115 1715.62 153.155 1714.38 154.176 1714.16L156.316 1723.74L151.574 1725.15L149.118 1716.06ZM87.8598 1726.46C86.7411 1726.05 85.7684 1725.37 84.4552 1724.85C84.4309 1723.03 86.5952 1715.13 87.495 1713.97C88.6379 1714.57 90.243 1715.64 91.4346 1716.37C88.2489 1721.91 89.2459 1724.25 87.8598 1726.46ZM155.489 1712.39C156.632 1711.34 156.535 1712.65 156.827 1711.22C155.854 1711.39 155.976 1711.63 155.027 1711.93C154.176 1712.22 153.568 1712.19 152.668 1712.51C151.501 1712.92 150.018 1713.58 148.85 1714.06C141.895 1716.93 141.652 1716.25 138.272 1717.56C137.445 1717.88 136.934 1717.95 135.986 1718.17C134.235 1718.54 133.457 1718.8 131.56 1719.14C128.569 1719.68 125.821 1720.48 122.076 1720.58C114.683 1720.77 108.457 1720.09 101.916 1718.66C91.0698 1716.28 87.6652 1711.71 87.1302 1711.46C86.0359 1712.29 82.4367 1723.91 82.7286 1725.07C83.1177 1726 84.6254 1726.22 86.6682 1727.36C95.7146 1732.41 102.694 1731.54 111.035 1732.49C125.262 1734.11 138.175 1731.47 151.55 1727.53C152.96 1727.11 154.492 1726.26 155.757 1726C157.411 1725.66 157.629 1726.19 158.724 1724C157.629 1722.69 157.751 1723.49 157.313 1721.48L155.489 1712.39Z" fill="#E8D9BC"/>
<path fill-rule="evenodd" clip-rule="evenodd" d="M127.037 1699.63C128.982 1700.21 130.49 1699.87 130.685 1697.73C127.45 1694.43 126.356 1697.78 127.037 1699.63Z" fill="#E8D9BC"/>
<path fill-rule="evenodd" clip-rule="evenodd" d="M112.324 1697.73C113.71 1694.91 109.795 1696.1 109.26 1697.54C108.385 1699.8 110.889 1700.67 112.324 1697.73Z" fill="#E8D9BC"/>
</svg>
