<svg width="750" height="250" viewBox="0 0 750 250" fill="none" xmlns="http://www.w3.org/2000/svg">
<mask id="mask0_20_151" style="mask-type:alpha" maskUnits="userSpaceOnUse" x="12" y="17" width="715" height="230">
<path d="M71.5 36.25C73.1667 35.4167 75.6667 35.3333 79 36C82.5 36.5 85.5833 37.75 88.25 39.75C90.9167 41.4167 91.9167 43.5833 91.25 46.25C90.75 48.75 88.6667 52.4167 85 57.25C82.3333 60.5833 81.1667 63.5 81.5 66C81.8333 67.5 81.75 68.6667 81.25 69.5C80.9167 70.3333 79.8333 71.5833 78 73.25C73.5 77.4167 72.3333 80.0833 74.5 81.25C75.3333 81.9167 75.75 83.9167 75.75 87.25C75.75 90.9167 75.0833 93.4167 73.75 94.75C72.5833 95.9167 70.3333 96.5 67 96.5C62.3333 96.6667 57.1667 97.9167 51.5 100.25C45.8333 102.583 42.75 104.917 42.25 107.25C41.5833 108.583 40.9167 109.833 40.25 111C39.4167 111.833 38.5 113.917 37.5 117.25C36.5 120.417 35.75 123.167 35.25 125.5C34.9167 127.833 35.0833 129.25 35.75 129.75C35.75 129.75 37.6667 129 41.5 127.5C46.8333 125.5 52.75 124.917 59.25 125.75C65.75 126.417 70.75 128.25 74.25 131.25C76.5833 133.25 77.8333 135.833 78 139C78 142.333 77.75 149.417 77.25 160.25C76.75 170.917 76.4167 177.25 76.25 179.25C75.9167 181.75 75.3333 185.167 74.5 189.5C73 200.167 71.0833 208.25 68.75 213.75C67.5833 216.083 65.4167 219.333 62.25 223.5C59.0833 227.833 56.8333 230.417 55.5 231.25C54.1667 232.083 51.75 232.75 48.25 233.25C44.75 233.917 42.75 234 42.25 233.5C41.4167 232.833 40.0833 232.333 38.25 232C36.5833 231.833 35.8333 231 36 229.5C36.1667 228 35.75 226.833 34.75 226C33.75 225.333 33.25 224.5 33.25 223.5C33.25 222.5 31.9167 220.583 29.25 217.75C26.5833 214.75 24.8333 212.417 24 210.75C23.3333 208.917 21.25 206 17.75 202C14.25 198 12.5 195.5 12.5 194.5C12.5 191.833 14.8333 192.167 19.5 195.5C20 196 20.4167 196.417 20.75 196.75C23.9167 199.083 27.5833 200.583 31.75 201.25C36.4167 201.917 39.5833 202.167 41.25 202C43.0833 201.833 44.75 201 46.25 199.5C52.4167 192.833 55.75 179.833 56.25 160.5C56.25 159.5 56.25 157.917 56.25 155.75C56.25 148.75 56.0833 144.667 55.75 143.5C55.4167 142.333 54.5 141.917 53 142.25C52.5 142.417 52.1667 142.5 52 142.5C47.5 143 42.9167 144.917 38.25 148.25C33.5833 151.417 30 155.083 27.5 159.25C26.1667 161.417 24.8333 162.917 23.5 163.75C22.1667 164.417 21.0833 164.083 20.25 162.75C19.75 162.083 19.4167 158.417 19.25 151.75C19.0833 144.917 19.5 139.833 20.5 136.5C25.3333 122.833 28.0833 111 28.75 101C28.9167 97 29.5 94.5 30.5 93.5C31.6667 92.3333 35.3333 90.4167 41.5 87.75C48.6667 84.75 52.8333 82.75 54 81.75C55.1667 80.75 56.25 78.4167 57.25 74.75C58.4167 70.25 59.75 66.0833 61.25 62.25C63.9167 54.9167 64.3333 51.0833 62.5 50.75C60.6667 50.75 57.5 51.4167 53 52.75C48.5 53.9167 45.4167 55.0833 43.75 56.25C41.5833 57.5833 39.8333 58.25 38.5 58.25C37.5 58.25 36.5 57.5 35.5 56C34.6667 54.5 34.25 53 34.25 51.5C34.25 50.3333 34.8333 48.6667 36 46.5C37.3333 44.3333 38.6667 42.9167 40 42.25C41.6667 41.0833 44.9167 40 49.75 39C54.75 38 59.25 37.5 63.25 37.5C67.9167 37.5 70.6667 37.0833 71.5 36.25ZM152.75 30.5C154.917 29.6667 156.333 29.3333 157 29.5C157.833 29.5 159.583 30.0833 162.25 31.25C164.917 32.5833 167.167 34.1667 169 36C171 37.6667 172 39.0833 172 40.25C172 42.9167 169.417 47.6667 164.25 54.5C161.75 57.8333 159.417 61.4167 157.25 65.25C155.25 69.0833 150.5 74.8333 143 82.5L131.75 93.75L138.75 92.75C149.917 91.75 161 90.75 172 89.75C176.667 89.25 179.75 89.5833 181.25 90.75C182.917 91.9167 183.917 94.5 184.25 98.5C184.75 102.5 184.333 105.083 183 106.25C181.667 107.417 178.5 108.083 173.5 108.25C160.167 108.417 150.667 109 145 110C139.167 110.667 135.833 111.417 135 112.25C134.333 113.083 135.167 114.917 137.5 117.75C142.167 123.417 148.583 130.583 156.75 139.25C165.083 147.917 170.333 153 172.5 154.5L178.75 159.25C181.583 161.25 183.167 162.417 183.5 162.75C183.833 163.417 186.167 165.167 190.5 168C194.833 170.667 197.167 172 197.5 172C197.833 172 199.833 173.167 203.5 175.5C207.167 177.833 210.417 179.667 213.25 181L221.25 184.75C224.083 186.083 225.833 186.75 226.5 186.75C227.333 186.75 228.833 187.917 231 190.25C233.167 192.583 234.917 194.833 236.25 197C237.083 198.667 237.5 199.75 237.5 200.25C237.5 200.583 237 201.083 236 201.75C234.5 202.917 228.917 204.667 219.25 207C215.25 208.167 211.5 209.417 208 210.75C200.833 213.417 195.917 213.333 193.25 210.5C192.25 209.167 191.333 208.5 190.5 208.5C189.667 208.5 187.083 206.917 182.75 203.75C178.417 200.417 174.833 197.25 172 194.25C168.667 190.75 165.083 186.75 161.25 182.25C157.417 177.75 155.5 175.333 155.5 175C155.5 174.5 153.917 172 150.75 167.5C147.75 162.833 146.25 160.417 146.25 160.25C146.25 159.917 144.583 157.583 141.25 153.25C136.583 147.083 131.583 139.25 126.25 129.75C125.25 128.417 124.333 127.25 123.5 126.25C122.833 125.25 122.25 124.5 121.75 124C121.25 123.5 120.917 123.417 120.75 123.75C119.417 124.917 118.417 136.583 117.75 158.75C117.417 171.583 116.75 179.583 115.75 182.75C115.417 183.75 115.167 184.583 115 185.25C115 185.917 115 186.5 115 187C115 187.5 115.083 187.75 115.25 187.75C115.583 187.75 117.833 186.083 122 182.75C126.167 179.417 129.583 176.5 132.25 174C134.583 171.833 136.417 170.25 137.75 169.25C139.083 168.083 140.167 167.583 141 167.75C141.833 167.917 142.25 168.667 142.25 170C142.25 171.167 142.167 173 142 175.5C141 182.333 137.083 189.75 130.25 197.75C128.083 200.583 125.833 204 123.5 208C121.167 211.833 119 214.75 117 216.75C115.167 218.583 113.75 221.083 112.75 224.25C111.083 229.083 108.25 230.917 104.25 229.75C102.917 229.583 101.583 228.583 100.25 226.75C99.0833 224.917 98.5 223.083 98.5 221.25C98.5 220.417 97.8333 218.5 96.5 215.5C95.1667 212.333 94.0833 210.583 93.25 210.25C92.4167 209.583 92.0833 207.5 92.25 204C92.4167 200.333 92.9167 198.083 93.75 197.25C95.4167 195.917 97.5833 189.333 100.25 177.5C101.417 172.667 102 162.667 102 147.5C102.167 132.167 101.75 124.333 100.75 124C98.4167 123 95.3333 124.25 91.5 127.75C89.1667 129.917 86.5 131 83.5 131C80.6667 131 78.0833 129.917 75.75 127.75C74.0833 126.583 73.0833 125.667 72.75 125C72.4167 124.167 72.5 122.5 73 120C73.5 116.833 74.6667 114.583 76.5 113.25C82.8333 108.917 89.3333 105.917 96 104.25C100 103.417 102.25 102.667 102.75 102C103.417 101.333 104.083 91.5833 104.75 72.75C105.25 56.9167 105.917 46.75 106.75 42.25C107.583 37.75 109.167 35.5 111.5 35.5C115.667 35.5 118.75 37.0833 120.75 40.25C121.917 41.75 122.083 46.4167 121.25 54.25C120.917 58.75 120.667 63.1667 120.5 67.5C120.333 71.8333 120.25 75.3333 120.25 78C120.417 80.6667 120.667 82 121 82C121.833 82 124 79.6667 127.5 75C131 70.1667 132.75 67.25 132.75 66.25C132.75 65.0833 133.083 64.3333 133.75 64C135.083 63 137.333 58.4167 140.5 50.25C143.167 42.5833 145.25 37.5833 146.75 35.25C148.25 32.9167 150.25 31.3333 152.75 30.5ZM355.5 34.75C356.167 34.4167 357.5 34.75 359.5 35.75C361.667 36.75 363.417 37.25 364.75 37.25C366.25 37.25 369.167 39.4167 373.5 43.75L380 50.25V56C380 59.6667 379.667 61.9167 379 62.75C378.333 63.4167 377.917 65.1667 377.75 68C376.75 83.8333 376 93.3333 375.5 96.5L375.25 99.5L389.75 99C399.25 98.8333 404.667 98.3333 406 97.5C407.667 95.8333 410.667 95.8333 415 97.5C417.167 98.1667 419 98.6667 420.5 99C422.167 99.1667 425 100.917 429 104.25C431.667 106.583 433.25 108.167 433.75 109C434.417 109.667 434.75 111.167 434.75 113.5C434.75 116.333 434.417 117.75 433.75 117.75C433.083 117.75 432.25 118.167 431.25 119C430.25 119.833 428.583 120.25 426.25 120.25C423.917 120.083 421.833 119.417 420 118.25C418 117.417 414 116.25 408 114.75C402 113.25 396.5 112.417 391.5 112.25C386.667 111.917 382.75 111.583 379.75 111.25C377.417 111.083 376.083 111.167 375.75 111.5C375.583 111.667 375.5 112.417 375.5 113.75C375.5 115.917 375.75 117.583 376.25 118.75C376.917 119.75 377.5 122.25 378 126.25C378.167 129.25 378.75 131.917 379.75 134.25C380.917 136.583 383.5 140.917 387.5 147.25C392.5 155.083 397.25 161.417 401.75 166.25C403.417 167.917 405.417 170.25 407.75 173.25C410.083 176.25 413.75 180.167 418.75 185C423.75 189.667 427.667 193.083 430.5 195.25C433.667 197.583 438.25 200.5 444.25 204C450.417 207.333 454.25 209.583 455.75 210.75C457.417 211.75 462.083 214.167 469.75 218C481.25 223.833 486.5 227.667 485.5 229.5C484.833 229.833 481.917 230.667 476.75 232C471.583 233.333 466.667 234.25 462 234.75C456.333 235.75 451.417 237.167 447.25 239C443.25 241 440.25 241.833 438.25 241.5C436.417 241.333 433.25 239.75 428.75 236.75C421.583 232.083 414.917 225.833 408.75 218C406.583 215.333 404.583 213.083 402.75 211.25C401.083 209.25 400.25 208 400.25 207.5C400.25 206.833 398.333 204 394.5 199C390.667 194 388.75 191.25 388.75 190.75C388.75 190.083 387.75 188.417 385.75 185.75C380.583 178.917 377.25 174.083 375.75 171.25C375.583 170.25 374.833 168.833 373.5 167C372.167 165.167 370.667 162.417 369 158.75C367.667 155.917 366.75 154.583 366.25 154.75C366.083 154.75 365.917 155.083 365.75 155.75L364.5 158.5C363.833 159.667 363.25 160.75 362.75 161.75C362.25 162.583 360.417 166.167 357.25 172.5C354.25 178.667 351.667 183.167 349.5 186L342.75 194.25C340.583 196.917 338.167 199.5 335.5 202C333 204.5 331.417 205.75 330.75 205.75C329.75 205.75 327.583 207.333 324.25 210.5C321.083 213.667 318.167 215.833 315.5 217C312.833 218 310.75 219.167 309.25 220.5C307.75 222 304.417 224 299.25 226.5C294.083 229.167 289.833 231.583 286.5 233.75C281.667 236.75 278.75 237.5 277.75 236C277.583 235.833 277.5 235.667 277.5 235.5C277.5 233.333 282.083 229 291.25 222.5C292.75 221.167 296.417 217.833 302.25 212.5C307.083 208.167 313 201.583 320 192.75C327.167 183.75 332 176.75 334.5 171.75L339 164C343.333 155.167 346.5 143.75 348.5 129.75C350 119.917 350.333 114.833 349.5 114.5C349.5 114.5 349.083 114.5 348.25 114.5C344.25 114.5 336.917 116.333 326.25 120C323.25 121.167 321.167 122.083 320 122.75C319 123.25 318.333 124.167 318 125.5C317.167 127.333 315.667 128.333 313.5 128.5C311.5 128.667 309.083 127.833 306.25 126C303.583 124.167 301.333 121.583 299.5 118.25C298.833 116.917 298.417 115.833 298.25 115C298.083 114.167 298.917 113.25 300.75 112.25C302.75 111.25 305.333 110.333 308.5 109.5C311.833 108.667 316.5 107.5 322.5 106C331.167 104.167 338.167 102.75 343.5 101.75L351.5 100.75L352.25 70.5C352.417 56.5 352.667 47.25 353 42.75C353.5 38.25 354.333 35.5833 355.5 34.75ZM544 108.5C543.5 105.333 542.833 103.5 542 103C541.333 102.333 541.333 100.75 542 98.25C542.833 95.75 543.5 88.8333 544 77.5C544.5 66 545 60.1667 545.5 60C546 59.6667 546.25 59 546.25 58C546.25 57 546.75 55.6667 547.75 54C548.917 52.1667 550.25 51.5 551.75 52C556.583 53.3333 560.167 56.25 562.5 60.75C563.5 62.9167 564.083 65.0833 564.25 67.25C564.417 69.25 564.417 74.4167 564.25 82.75C563.75 102.917 562.25 114.167 559.75 116.5C557.75 118.333 554.75 118.75 550.75 117.75C548.583 117.25 547 116.333 546 115C545 113.667 544.333 111.5 544 108.5ZM587.25 20.75C587.75 19.4167 588.25 18.5 588.75 18C589.25 17.5 589.833 17.3333 590.5 17.5C591.5 18 592.25 18.25 592.75 18.25C593.25 18.25 594.5 19.3333 596.5 21.5C598.667 23.5 600.167 25.0833 601 26.25C602 27.9167 602.75 30.5 603.25 34C603.75 36.5 603.917 43.1667 603.75 54C603.75 64.6667 603.583 70.3333 603.25 71C602.917 71.3333 603 72.5833 603.5 74.75L604 77.75L606.75 75.25C610.583 71.75 617.917 68.6667 628.75 66C629.25 65.8333 630 65.6667 631 65.5C635.667 64.6667 638.333 63.5833 639 62.25C639.667 60.9167 640.25 56.9167 640.75 50.25C640.75 48.75 640.75 47.5833 640.75 46.75C641.25 36.0833 641.667 29.5 642 27C642.333 24.8333 643.417 22.6667 645.25 20.5C647.083 18.1667 648.833 17 650.5 17C651.5 17 653.667 18.6667 657 22C660.5 25.1667 662.667 27.6667 663.5 29.5C665.333 33.5 667 36.25 668.5 37.75C669.167 38.4167 669.5 39.6667 669.5 41.5C669.5 43.3333 669.167 44.5 668.5 45C667.833 45.5 667.5 48.1667 667.5 53V60.25L674.5 61C679 61.5 682.917 62.25 686.25 63.25C689.583 64.0833 692.583 64.6667 695.25 65C697.917 65.5 702 67.1667 707.5 70C713 72.6667 716.833 74.9167 719 76.75C721.333 78.75 722.667 79.75 723 79.75C723.5 79.75 724.25 81.0833 725.25 83.75C726.25 85.5833 726.667 87 726.5 88C726.5 88.8333 725.833 91 724.5 94.5C722.833 99.1667 721.667 103.417 721 107.25C718.833 118.917 717.5 125.083 717 125.75C716.167 126.25 715.75 127.083 715.75 128.25C715.75 129.583 715 131.583 713.5 134.25C712.167 136.917 710.583 139.25 708.75 141.25C706.583 143.583 705.167 145.75 704.5 147.75C703.5 149.583 701 152.5 697 156.5C693 160.333 689.917 162.833 687.75 164C685.917 164.833 683.667 165.333 681 165.5C678.5 165.5 676.583 165.083 675.25 164.25C673.917 163.25 673.167 161.917 673 160.25C672.333 157.083 670.667 154.5 668 152.5C666.5 151.333 665.583 151.417 665.25 152.75C664.75 153.417 664.333 160.75 664 174.75C663.667 188.583 663.083 197.5 662.25 201.5C661.583 205.333 661.083 210.333 660.75 216.5C660.417 222.5 659.917 226.25 659.25 227.75C658.583 229.417 658.25 231.667 658.25 234.5C658.25 237.333 657.917 239.083 657.25 239.75C656.583 240.583 655.833 241.75 655 243.25C654.167 245.25 652.667 246.25 650.5 246.25C648.5 246.25 646.833 245.333 645.5 243.5C644 241.5 642.833 236.917 642 229.75C641.167 222.583 640.917 215.167 641.25 207.5C641.583 199.667 641.667 176.917 641.5 139.25C641.333 101.417 641.083 81.5 640.75 79.5C640.25 78.1667 639.833 77.4167 639.5 77.25C639.167 76.9167 638.083 76.9167 636.25 77.25C633.25 77.75 630.333 78.5833 627.5 79.75C624.667 80.75 622.5 81.9167 621 83.25C619.667 84.4167 619.333 85.4167 620 86.25C620.667 86.9167 621 88.5 621 91C620.833 93.5 621.167 97.5833 622 103.25C623 108.75 623.833 112.75 624.5 115.25C625.667 118.083 626.25 121.5 626.25 125.5C626.25 129.333 626.583 131.417 627.25 131.75C628.25 132.25 628.417 134.083 627.75 137.25C627.083 140.417 626.083 142.667 624.75 144C622.417 146.5 619.583 146.917 616.25 145.25C612.917 143.583 611 140.667 610.5 136.5C610 133.333 609.833 131 610 129.5C610.5 126.833 610.583 123.083 610.25 118.25C609.917 113.25 609.583 109.5 609.25 107C608.417 103.333 608 98.75 608 93.25C608 89.4167 607.833 87 607.5 86C607.167 84.8333 606.583 83.9167 605.75 83.25C604.25 82.4167 603.25 82.25 602.75 82.75C602.25 83.25 602 84.6667 602 87C602 91 601.083 97.6667 599.25 107C597.417 116.167 595.75 122.5 594.25 126C593.25 128.167 592.75 129.917 592.75 131.25C592.75 132.417 591.25 136.25 588.25 142.75C585.25 149.25 583.75 152.75 583.75 153.25C583.75 153.583 582.75 155.167 580.75 158C578.75 160.667 577.75 162.25 577.75 162.75C577.75 163.083 575.917 166 572.25 171.5C569.25 176 565.5 180.333 561 184.5C556.667 188.5 550.25 193.833 541.75 200.5C538.583 202.833 535.25 204.583 531.75 205.75C528.25 206.75 525.833 206.833 524.5 206C523.5 205 523.083 203.667 523.25 202C523.417 200.333 524.083 199 525.25 198C526.917 196.667 531.167 192.5 538 185.5C544.833 178.5 548.25 174.833 548.25 174.5C548.417 174 548.833 173.25 549.5 172.25C553.333 168.25 556.25 164.25 558.25 160.25C559.083 158.75 560.167 156.333 561.5 153C563 149.5 564.417 146.417 565.75 143.75C568.417 138.25 571.667 128.333 575.5 114C578.167 104 580.5 90.6667 582.5 74C584.667 57.1667 585.667 42.9167 585.5 31.25C585.5 26.9167 586.083 23.4167 587.25 20.75ZM682.25 77.75C680.25 77.0833 677.083 76.5833 672.75 76.25C668.583 75.9167 666.333 76.0833 666 76.75C665.667 77.4167 665.583 79.3333 665.75 82.5C665.75 85.3333 665.333 94.0833 664.5 108.75C663.667 123.417 663.167 131.25 663 132.25C662.5 133.75 662.917 134.75 664.25 135.25C665.583 135.75 667.75 135.833 670.75 135.5C674.083 135.167 676.583 134.417 678.25 133.25C679.917 131.917 681.667 129.5 683.5 126C686.5 119.5 688.583 111.583 689.75 102.25C690.417 96.25 691 91.25 691.5 87.25C692 84.0833 691.917 81.8333 691.25 80.5C690.583 79.1667 689.25 78.5 687.25 78.5C685.583 78.5 683.917 78.25 682.25 77.75Z" fill="#E0E0E0"/>
</mask>
<g mask="url(#mask0_20_151)">
<rect y="17" width="750" height="233" fill="#E8D9BC"/>
</g>
</svg>
