<svg width="220" height="2539" viewBox="0 0 220 2539" fill="none" xmlns="http://www.w3.org/2000/svg">
<path fill-rule="evenodd" clip-rule="evenodd" d="M72.041 2039.53L82.208 2024C87.2774 2025.32 89.9942 2026.94 94.0554 2029.12L105.455 2034.69C106.827 2035.42 112.233 2037.86 113.045 2038.92C109.74 2039.62 107.051 2040.35 103.382 2040.68C100.469 2040.96 96.2961 2042.03 93.0191 2042.05C84.4486 2042.11 79.5472 2040.88 72.041 2039.53ZM11.9635 2006.79C13.7841 2007.26 15.8567 2008.94 17.6492 2009.73C20.366 2010.9 22.6627 2010.03 25.1554 2009.61C26.3317 2013.11 32.3255 2019.47 35.4904 2022.15C36.2746 2022.82 35.8545 2022.43 36.2746 2023.1C35.0703 2024.2 32.9977 2024.36 31.2331 2024.84C27.34 2025.96 21.7104 2029.85 15.3525 2026.52C12.4957 2025.04 10.5631 2022.57 10.3111 2018.15C9.89094 2010.84 9.58285 2011.29 11.9635 2006.79ZM14.6243 1986.24C14.9604 1986.66 19.6658 2000.07 22.4946 2005.33L23.5029 2007.15C23.5029 2007.23 23.5029 2007.37 23.5029 2007.43L23.3348 2007.99C20.7301 2008.89 17.9013 2008.13 15.8007 2006.62C15.0724 2006.11 15.0164 2005.92 14.5123 2005.41C12.9158 2003.74 12.1316 2004.02 11.2913 2001.08C9.97496 1996.35 9.72289 1989.26 14.6243 1986.24ZM86.8573 1996.51C88.7059 1995.73 88.8739 1994.19 91.3666 1993.49C91.7588 1993.85 91.7027 1993.69 92.0668 1994.25C94.1114 1997.33 93.9714 2006.81 88.3418 2009.31C84.6447 2010.96 82.7121 2010.76 78.847 2009.56C76.8024 2008.91 76.7464 2008.52 75.374 2007.63C73.3294 2006.25 73.8055 2007.18 72.013 2005.13C70.5006 2003.37 68.7641 1999.4 70.1645 1996.6C71.929 1993.07 74.8418 1985.37 81.7598 1986.63C83.7204 1986.97 85.849 1988.17 87.4455 1989.26L89.042 1990.78C88.1737 1992.9 85.9891 1994.25 86.8573 1996.51ZM33.4178 1977.93C34.8462 1979.5 38.9634 1980.84 41.2601 1981.96C42.6605 1982.63 48.5982 1984.95 49.5505 1985.79C48.8223 1987.81 46.8057 1989.01 44.593 1991.28C40.7559 1995.23 39.4956 1994.61 39.0474 1996.63C46.3015 1996.74 46.3295 1996.18 44.397 1998.95C41.148 2003.51 37.1149 2012.13 33.3057 2015.6C27.34 2011.63 20.2259 1993.97 18.0413 1985.21L15.8007 1975.02C15.6046 1973.79 15.5206 1972.75 15.2965 1971.38C14.5683 1966.73 14.7083 1967.4 27.0599 1967.85C31.3732 1968.02 35.6304 1967.88 39.3835 1967.77C38.5713 1970.31 37.563 1970.82 36.4707 1973.2C35.5744 1975.13 34.146 1976.42 33.4178 1977.93ZM148.531 1954.72L150.38 1953.97C151.22 1953.8 151.752 1953.83 152.536 1953.66C155.561 1952.96 164.832 1950.16 165.616 1953.13C168.109 1962.95 167.577 1980.53 165.252 1989.54C163.712 1995.56 161.583 1999.45 159.959 2004.97C158.894 2008.49 153.461 2015.1 151.556 2017.31C149.372 2017.09 146.627 2015.16 144.918 2013.95C143.294 2012.83 139.989 2011.6 137.972 2010.54C136.796 2009.92 136.04 2009.22 134.947 2008.63C133.463 2007.82 132.847 2007.68 131.418 2006.7L125.088 2002.92C128.505 2001.8 140.437 1999.31 141.389 1997.41C142.425 1995.28 136.46 1989.99 134.975 1988.23L132.287 1985.09C131.278 1983.81 132.174 1984.87 131.278 1984.06C131.194 1984 131.11 1983.92 131.054 1983.86L127.357 1979.72C128.337 1978.6 133.295 1976.84 134.667 1976.36C136.264 1975.83 136.964 1975.33 138.448 1974.77C144.218 1972.69 151.08 1971.63 155.813 1967.66L157.018 1966.73C155.449 1961.67 155.897 1964.46 153.349 1960.29C152.536 1958.98 152.144 1958.48 151.304 1957.41C149.624 1955.37 149.596 1956.18 148.531 1954.72ZM142.818 1954.72C145.226 1956.1 145.842 1956.91 147.999 1959.9C149.596 1962.09 151.388 1964.02 152.396 1966.48C149.96 1967.38 147.663 1968.27 145.17 1969.17L137.552 1971.88C135.283 1973 133.015 1973.62 130.718 1974.99L125.733 1977.54C125.032 1977.9 124.724 1978.32 124.416 1978.49C125.313 1980.25 124.752 1978.66 126.209 1980.42C128.729 1983.44 131.838 1988.56 134.331 1991.78C135.591 1993.38 137.16 1994.44 137.944 1996.26C132.483 1997.8 125.929 1999.73 121.251 2002.73C122.512 2006.23 142.313 2016.69 146.739 2018.68L148.503 2019.58C148.559 2019.63 148.699 2019.72 148.783 2019.8C145.702 2023.69 140.745 2025.54 138.28 2027.3C134.079 2030.27 132.567 2031.81 126.909 2034.22C124.808 2035.11 119.767 2037.27 117.498 2037.44L111.336 2033.85C109.292 2032.79 106.939 2031.36 104.699 2030.55C103.102 2029.96 102.794 2029.57 101.394 2028.87C100.413 2028.39 98.9008 2027.92 97.8645 2027.39C95.7919 2026.27 94.1675 2024.78 91.4787 2023.89C77.1105 2019.05 77.3346 2026.69 72.8813 2031.98C71.4248 2033.68 70.0804 2036.79 68.8481 2037.94C68.7641 2037.94 68.596 2037.86 68.54 2037.97C68.484 2038.08 68.2879 2038 68.2039 2038C66.0193 2037.91 62.9944 2036.68 61.3419 2035.73C59.0172 2034.41 57.3647 2033.46 55.1521 2031.95C54.5079 2031.5 54.2278 2031.45 53.6117 2031C53.0235 2030.55 52.8274 2030.24 52.2953 2029.82L46.6376 2025.57C45.9374 2025.15 45.6293 2024.98 45.1252 2024.56L43.8928 2023.1C44.8171 2022.26 44.397 2022.6 45.5453 2022.04C52.5193 2018.65 65.7392 2013.34 70.0244 2008.1C72.153 2008.94 72.2651 2009.81 74.4777 2010.96C79.8833 2013.73 87.5015 2014.23 91.6467 2009.28C95.4838 2004.71 96.2681 2007.79 97.4164 2000.63C98.5367 1993.63 96.8562 1993.74 95.3998 1989.29C101.057 1984.42 104.923 1979.47 111.084 1974.85C114.053 1972.64 116.854 1970.12 119.683 1968.08L146.907 1941.82C149.512 1939.33 154.133 1934.71 156.149 1932C157.27 1930.51 156.766 1930.65 158.306 1929.78C159.65 1932.72 160.911 1935.41 162.171 1938.71L164.552 1948.12C164.524 1948.76 163.852 1948.82 163.124 1948.93C157.606 1949.69 158.922 1949.18 152.929 1950.78C150.688 1951.39 149.736 1951.98 147.523 1952.49C145.562 1952.9 143.406 1952.79 142.818 1954.72ZM29.2166 1922.45C30.785 1920.86 31.5692 1918.5 33.0537 1916.71C33.9219 1915.68 34.6501 1915.43 35.5744 1914.31C36.6947 1912.99 36.3586 1912.63 38.3752 1912.21C38.4592 1917.97 36.6947 1923.04 38.7393 1932.19C40.896 1931.72 42.9406 1928.41 44.2569 1926.71L49.0463 1920.35L63.1344 1931.07C64.1147 1931.97 64.6469 1932.7 65.6552 1933.56C68.3439 1935.83 69.5483 1936.7 71.4528 1936.39C74.5057 1930.82 73.6095 1924.33 74.8138 1918.31C80.8076 1918.06 96.1 1926.01 90.8625 1912.12C90.1063 1910.16 88.7059 1907.34 88.5938 1905.07C92.459 1904.65 97.9205 1908.15 99.6851 1904.15C98.6488 1902.94 99.0129 1903.53 97.6405 1902.91C98.4807 1901.07 99.8531 1895.08 99.9931 1892.95C100.049 1891.77 99.7971 1892.33 100.217 1891.07C100.553 1890.04 100.721 1890.12 100.917 1889.87C111.561 1889.95 118.422 1894.41 125.901 1899.89C128.169 1901.54 130.326 1902.61 132.679 1904.26C135.844 1906.47 142.902 1911.9 145.562 1914.64L151.472 1920.35C152.957 1921.67 152.957 1922.12 154.189 1923.43C157.158 1926.71 158.418 1925.14 149.287 1935.08L121.699 1961.41C120.215 1962.67 118.983 1963.74 117.386 1964.97C115.902 1966.12 114.753 1967.29 113.017 1968.5C108.144 1971.88 108.2 1972.58 104.727 1975.52L97.0803 1983.19C92.543 1989.1 91.1146 1986.05 90.4144 1985.51C82.4881 1979.58 65.5151 1986.49 67.3917 2001.58C67.7838 2004.8 68.3439 2004.52 69.0161 2006.7C66.7755 2008.69 66.5514 2008.35 64.955 2009.19C56.3845 2013.81 53.1075 2016.41 42.8845 2020.31C38.1792 2022.1 37.8431 2020.36 34.4821 2017.42C35.2103 2015.58 37.507 2013.45 38.7393 2011.99C41.12 2009.11 44.341 2003.85 46.2735 2000.46C47.7019 1997.91 48.9903 1997.55 48.0941 1993.99L44.9851 1994.41C45.2372 1993.46 46.5256 1992.43 47.4219 1991.62L53.2195 1986.61C55.0401 1984.11 50.2227 1981.99 48.4582 1981.46C44.313 1980.25 42.3804 1978.99 40.6159 1978.54C39.1314 1978.15 37.479 1977.93 36.4427 1977.09C37.2549 1975.88 36.7508 1976.64 37.731 1975.69C39.8877 1973.65 44.481 1967.32 43.8368 1964.91L21.6824 1964.38C18.1533 1964.35 17.6212 1964.35 14.8484 1965.28C15.2685 1952.79 15.2125 1955.56 19.0776 1944.73C19.5537 1943.42 19.6378 1942.3 20.1419 1941.18C21.2342 1938.8 22.1585 1937.34 22.9147 1934.43L28.2083 1923.38C28.2083 1923.38 29.0485 1922.62 29.2166 1922.45ZM133.659 1900.4C137.244 1896.39 156.458 1888.75 163.264 1886.96C163.6 1890.15 164.86 1893.01 166.26 1895.24C166.989 1896.42 167.633 1896.98 168.893 1897.93C170.238 1898.91 171.106 1899.11 172.17 1900C171.666 1904.87 169.145 1908.93 167.157 1912.68C166.484 1913.97 161.331 1921.28 159.931 1922.54L159.398 1922.9C158.11 1921.72 157.774 1920.66 156.598 1919.37C152.648 1915.06 153.685 1917.44 149.96 1913.97C145.955 1910.19 142.481 1907.81 140.297 1905.83C137.132 1902.97 135.479 1902.19 134.219 1901.12C133.631 1900.59 134.023 1901.01 133.659 1900.4ZM41.5121 1908.6C43.5567 1908.06 45.4613 1905.85 47.3098 1904.87C49.7185 1903.59 50.7828 1902.49 53.3036 1901.32C57.8409 1899.19 68.0359 1893.65 72.8813 1892.25C75.374 1891.52 78.2028 1890.96 80.6675 1890.54C91.9548 1888.56 86.4092 1889.2 97.6685 1889.48C97.3044 1891.89 96.6602 1892.98 96.4921 1895.83C96.3801 1898.21 96.2401 1900.54 96.016 1902.58C91.6747 1902.21 90.7785 1902.16 86.4652 1902.58C86.0451 1903.56 86.5492 1903 85.681 1903.73C85.2889 1908.96 89.154 1913.19 89.5461 1917.61C86.4092 1917.41 84.1125 1916.85 81.2837 1916.29C79.7152 1915.96 78.5669 1916.15 76.9985 1916.01C74.8138 1915.82 75.318 1915.79 73.9456 1915.15C72.6852 1916.52 71.7329 1916.13 71.2848 1917.97C69.9964 1923.24 70.5286 1929 70.2765 1934.04C69.3802 1933.7 65.6272 1930.62 64.8429 1929.81C63.4705 1928.39 63.6386 1928.64 62.1541 1927.55C60.8378 1926.62 61.0058 1926.26 59.9135 1925.19L51.7631 1919.26C51.1469 1918.9 50.8108 1918.76 50.2507 1918.31C49.1864 1917.41 50.7828 1918.09 49.0463 1917.41C44.537 1920.44 44.341 1924.27 41.3441 1925.56C40.6719 1919.4 41.2321 1914.7 41.5121 1908.6ZM172.702 1898.3C169.117 1897.57 167.745 1895.66 166.512 1892.42C165.196 1888.95 163.88 1886.68 166.148 1883.13C168.669 1879.29 168.557 1878.42 172.086 1877.36C175.643 1876.3 178.78 1878.37 180.853 1879.79C187.827 1884.66 189.535 1887.88 185.614 1893.87C183.401 1897.23 182.673 1897.62 178.92 1898.74C172.086 1900.79 176.567 1896.14 175.167 1893.43C173.318 1894.13 174.327 1895.02 172.702 1898.3ZM131.614 1899.22C128.954 1898.35 125.116 1894.55 122.316 1892.7C113.409 1886.88 91.3106 1884.55 81.5918 1886.15C77.9787 1886.76 65.6832 1888.98 63.1624 1891.33C61.706 1892.67 60.3616 1893.99 58.373 1894.85L42.6885 1902.77C41.176 1903.75 39.0474 1905.15 38.3192 1906.64C37.2269 1906.41 37.647 1906.44 36.6107 1906.36L30.645 1913.05C23.4469 1922.2 21.2903 1927.66 17.005 1938.38C11.3194 1952.46 9.80691 1961.39 12.7758 1976.89C13.1399 1978.68 13.7561 1980.98 13.8961 1982.49C13.8121 1982.57 13.7 1982.57 13.672 1982.71C13.644 1982.85 13.504 1982.91 13.476 1982.97L10.143 1987.14C7.84634 1991.31 7.45423 1996.51 8.68659 2000.91C9.61086 2004.21 10.4511 2004.21 11.6835 2006.14C10.3671 2007.15 8.93866 2008.3 8.63057 2010.31C8.40651 2011.77 8.3785 2016.61 8.54655 2018.09C8.96667 2022.21 10.9552 2025.79 14.4843 2027.81C17.7892 2029.65 16.1087 2029.35 20.45 2029.71C22.7187 2029.91 24.4832 2029.65 26.8359 2029.07C30.3369 2028.17 36.1626 2025.51 38.9074 2025.15C41.6522 2028.67 55.0121 2037.8 59.6054 2039.48C80.2754 2047.01 98.0046 2047.46 119.319 2040.6C129.262 2037.41 140.101 2031.05 147.271 2024.67C148.307 2023.78 148.363 2023.47 149.4 2022.66C156.402 2017.06 162.143 2007.93 166.176 1999.68C168.753 1994.41 168.865 1991.7 169.957 1985.71L170.602 1980.03C170.686 1979.13 170.826 1979.19 171.05 1978.04C171.722 1974.88 171.05 1965.14 171.022 1961.33C170.994 1958.22 167.633 1941.6 166.569 1938.8C165.784 1936.84 164.804 1934.38 163.964 1932.7C160.351 1925.39 159.763 1927.07 164.944 1920.91C166.288 1919.32 167.745 1916.99 168.809 1914.78C170.938 1910.36 173.767 1906.13 174.635 1900.82C181.189 1900.98 182.897 1899.95 186.258 1896.59C188.387 1894.49 188.191 1895.41 189.367 1891.89C190.375 1888.81 190.095 1889.37 189.115 1886.43C188.079 1883.24 185.782 1878.81 183.177 1876.66C180.993 1874.84 180.937 1874.76 177.884 1874.11C174.355 1873.38 166.064 1876.16 163.684 1883.55C162.591 1886.9 163.544 1884.66 158.586 1886.4C156.514 1887.13 154.553 1887.58 152.424 1888.11C147.971 1889.2 140.269 1892.61 136.152 1895.41C133.715 1897.09 133.491 1897.37 131.614 1899.22Z" fill="#E8D9BC"/>
<path fill-rule="evenodd" clip-rule="evenodd" d="M110.86 1954.64C109.936 1953.77 109.04 1952.57 108.143 1951.62C106.463 1949.8 105.987 1950.41 104.306 1949.43C99.461 1954.33 101.702 1951.2 98.0325 1958.45C96.296 1961.89 94.6996 1965.61 93.6073 1969.39C90.7224 1968.27 89.9942 1966.26 85.3729 1963.21C83.7764 1962.17 82.544 1961.41 81.2837 1960.24C79.4351 1958.45 79.4071 1958.33 76.6063 1957.41C76.9424 1956.18 76.8864 1956.15 77.7827 1955.2C79.5752 1953.24 87.7816 1948.06 90.1623 1946.44C94.9797 1943.19 95.8479 1943.56 93.1871 1934.54C92.543 1932.36 91.7307 1933.37 91.1425 1930.12C93.4392 1930.74 95.5118 1932.56 98.2286 1934.18C99.517 1934.99 98.7047 1934.68 99.2649 1935.91C102.262 1935.1 104.951 1931.38 106.043 1928.78C107.387 1925.56 109.18 1922.26 111.28 1919.88C112.625 1920.04 119.571 1922.84 121.699 1923.51C123.576 1924.1 125.06 1924.66 126.909 1925.39C127.833 1925.73 128.393 1925.95 129.318 1926.29C129.682 1926.43 130.102 1926.57 130.55 1926.73L131.838 1927.21C131.922 1927.24 132.062 1927.29 132.146 1927.35L121.055 1940.42C114.865 1947.08 112.597 1952.82 110.86 1954.64ZM111.616 1957.94C113.129 1956.35 116.854 1950.16 117.834 1948.82C118.899 1947.31 119.823 1945.77 120.943 1944.45C122.092 1943.14 123.212 1941.82 124.388 1940.48L131.418 1932.56C132.623 1931.02 133.295 1929.81 134.527 1928.25C136.684 1925.53 137.552 1925.45 137.104 1924.05C135.76 1923.46 135.928 1924.94 133.855 1924.69C132.259 1924.52 127.777 1922.26 126.741 1921.89C125.397 1921.42 124.36 1921.25 122.96 1920.69C119.459 1919.26 116.658 1919.32 112.709 1917.22C110.888 1916.27 111.112 1916.91 108.143 1917.22C107.415 1920.46 108.452 1918.73 106.575 1921.42C104.446 1924.44 100.973 1931.72 100.497 1932.28C99.461 1931.72 98.7888 1931.38 97.7525 1930.48L88.8739 1925.87C86.9693 1928.11 87.3614 1927.83 89.322 1933.59C90.1343 1935.97 91.4506 1939.81 91.7867 1942.38L80.7515 1950.33C78.4549 1951.84 77.3345 1952.9 75.514 1954.61C74.7298 1955.34 73.8895 1956.32 73.2173 1956.88C71.7329 1958.11 71.4808 1957.1 70.7806 1958.87C71.6769 1959.68 72.8532 1959.59 76.3542 1961.83C78.2308 1963.01 79.4351 1963.96 81.2837 1965.16C91.3106 1971.63 92.2349 1975.44 95.9599 1970.51C99.2369 1966.14 98.8168 1962.9 102.514 1956.35C103.018 1955.4 103.41 1954.3 103.774 1953.41C106.799 1954.02 108.256 1957.92 111.616 1957.94Z" fill="#E8D9BC"/>
<path fill-rule="evenodd" clip-rule="evenodd" d="M103.802 2023.13C104.642 2023.5 103.97 2022.88 104.586 2023.55C105.147 2024.17 104.726 2023.64 105.007 2024.34C104.586 2024.11 104.698 2024.34 104.278 2023.89C103.606 2023.16 104.11 2024.08 103.802 2023.13ZM103.802 2025.46C104.811 2025.06 104.418 2025.04 105.707 2024.14C106.351 2025.01 106.967 2025.65 107.975 2025.74C108.34 2024.67 107.415 2024.59 106.295 2023.52C105.343 2022.66 105.175 2022.15 103.886 2021.59C103.522 2022.8 104.25 2021.7 103.382 2023.3C99.545 2021.2 100.525 2018.68 98.8448 2017.28C95.4558 2018.74 101.758 2024.45 103.802 2025.46Z" fill="#E8D9BC"/>
<path fill-rule="evenodd" clip-rule="evenodd" d="M24.9873 1947.64C26.8078 1947.03 26.5278 1946.91 26.6118 1944.79C26.8639 1938.97 29.3846 1936.95 29.5526 1934.52C27.7601 1934.71 27.8721 1935.27 27.0599 1936.84C25.3514 1940.09 24.2311 1946.05 24.9873 1947.64Z" fill="#E8D9BC"/>
<path fill-rule="evenodd" clip-rule="evenodd" d="M131.614 2024C133.323 2022.71 131.614 2019.1 131.054 2017.39C130.466 2015.58 130.774 2015.94 129.402 2015.6C128.73 2017.67 130.326 2019.02 130.774 2021.93C131.11 2024 130.186 2023.13 131.614 2024Z" fill="#E8D9BC"/>
<path fill-rule="evenodd" clip-rule="evenodd" d="M111.701 1898.32C112.373 1899.86 113.269 1899.47 114.529 1900.9C115.846 1902.38 115.174 1903.28 116.966 1903.53C118.366 1901.63 116.798 1901.15 115.678 1900.14C114.585 1899.19 114.165 1897.79 112.933 1897.2C112.233 1897.51 111.981 1897.48 111.701 1898.32Z" fill="#E8D9BC"/>
<path fill-rule="evenodd" clip-rule="evenodd" d="M28.8805 1949.55C30.1969 1949.49 29.8888 1949.88 30.1688 1948.4C30.4209 1946.92 31.4292 1942.07 30.813 1941.04C29.1886 1941.46 29.6087 1942.18 29.3006 1944.76C29.0765 1946.78 28.5724 1947.36 28.8805 1949.55Z" fill="#E8D9BC"/>
<path fill-rule="evenodd" clip-rule="evenodd" d="M63.9186 2017.76C63.1624 2019.13 64.0867 2020.28 64.9269 2021.37C65.4031 2021.96 66.9435 2024.22 67.9518 2023.72C69.7443 2022.82 67.1956 2021.57 66.6354 2020.89C65.347 2019.38 65.8512 2018.01 63.9186 2017.76Z" fill="#E8D9BC"/>
<path fill-rule="evenodd" clip-rule="evenodd" d="M64.1707 1967.01C62.1542 1966.56 62.3502 1968.44 62.5463 1970.4C62.7143 1972.19 62.9384 1973.62 64.4228 1974.21C64.7309 1973.34 64.2548 1968.8 64.1707 1967.01Z" fill="#E8D9BC"/>
<path fill-rule="evenodd" clip-rule="evenodd" d="M121.643 1987.42C122.232 1986.24 121.419 1984.81 121.027 1983.39C120.383 1981.06 121.055 1980.28 118.759 1979.89C118.647 1981.73 119.179 1982.55 119.739 1984.06C121.307 1988.37 120.131 1987.14 121.643 1987.42Z" fill="#E8D9BC"/>
<path fill-rule="evenodd" clip-rule="evenodd" d="M46.7216 1937.57C48.8502 1937.51 48.3181 1936.87 48.6262 1934.91C48.8782 1933.34 49.3544 1931.8 48.6542 1930.57C47.6739 1930.85 47.7859 1929.92 47.3938 1931.91L46.7216 1937.57Z" fill="#E8D9BC"/>
<path fill-rule="evenodd" clip-rule="evenodd" d="M132.707 1912.85C133.603 1914.28 133.827 1913.89 135.087 1914.73C136.796 1915.9 135.956 1916.55 137.412 1917.41C139.765 1914.53 133.379 1911.87 133.267 1911.84L132.707 1912.85Z" fill="#E8D9BC"/>
<path fill-rule="evenodd" clip-rule="evenodd" d="M140.717 1962.87L141.725 1961.78C139.653 1958.56 138.84 1955.68 137.468 1957.22C136.768 1957.94 140.605 1962.76 140.717 1962.87Z" fill="#E8D9BC"/>
<path fill-rule="evenodd" clip-rule="evenodd" d="M103.354 1917.25C104.67 1914.64 100.273 1911.56 98.6487 1911.82C98.4807 1913.94 99.1249 1913.21 100.833 1914.59C102.15 1915.68 102.43 1916.6 103.354 1917.25Z" fill="#E8D9BC"/>
<path fill-rule="evenodd" clip-rule="evenodd" d="M81.2277 1975.63C79.0991 1973.67 80.1074 1973 78.819 1971.52C76.3823 1972.61 79.9953 1977.76 82.096 1977.76C82.5161 1975.52 82.348 1976.75 81.7038 1976C81.6198 1975.91 81.3117 1975.72 81.2277 1975.63Z" fill="#E8D9BC"/>
<path fill-rule="evenodd" clip-rule="evenodd" d="M59.1012 1991.59C59.7734 1996.29 59.9975 1995 60.7257 1995.28C61.0058 1994.05 60.2495 1988.34 59.8574 1987.56C58.7931 1987.92 58.485 1987.31 59.1012 1991.59Z" fill="#E8D9BC"/>
<path fill-rule="evenodd" clip-rule="evenodd" d="M109.964 2002.22C110.636 2000.94 111.42 2002.08 108.648 1999.2C107.415 1997.91 107.415 1996.46 105.875 1996.26C104.838 1998.64 109.796 2002.17 109.964 2002.22Z" fill="#E8D9BC"/>
<path fill-rule="evenodd" clip-rule="evenodd" d="M65.4871 1944.14C63.3585 1944.73 64.8429 1948.68 65.347 1949.63C65.9912 1950.86 65.4591 1950.41 66.9435 1950.64C67.1956 1949.1 66.5794 1949.29 66.1313 1947.5C65.6831 1945.66 66.4394 1945.38 65.4871 1944.14Z" fill="#E8D9BC"/>
<path fill-rule="evenodd" clip-rule="evenodd" d="M50.9789 1973.93C50.2227 1972.64 50.5868 1971.71 49.8866 1970.48C48.0941 1970.9 49.0183 1972.67 49.5505 1974.18C50.0266 1975.58 50.9509 1976.89 52.4353 1976.3C52.9955 1974.65 51.8752 1975.49 50.9789 1973.93Z" fill="#E8D9BC"/>
<path fill-rule="evenodd" clip-rule="evenodd" d="M118.731 1913.63C119.963 1912.29 119.151 1912.32 118.17 1910.47C117.498 1909.21 117.218 1907.9 115.566 1907.62C115.117 1910.44 115.482 1908.68 116.742 1910.7C117.498 1911.87 117.358 1913.02 118.731 1913.63Z" fill="#E8D9BC"/>
<path fill-rule="evenodd" clip-rule="evenodd" d="M81.9278 1937.34C81.8438 1935.89 79.9953 1931.72 77.8667 1931.72C77.3345 1933.65 78.3428 1933.51 79.3791 1934.77C81.3397 1937.09 79.3511 1936.73 81.9278 1937.34Z" fill="#E8D9BC"/>
<path fill-rule="evenodd" clip-rule="evenodd" d="M117.946 2022.54C118.955 2021.4 118.591 2020.89 117.526 2019.33C117.05 2018.63 115.426 2016.58 114.613 2016.69C112.653 2016.89 115.286 2018.79 115.678 2019.16C116.63 2020.05 117.218 2021.51 117.946 2022.54Z" fill="#E8D9BC"/>
<path fill-rule="evenodd" clip-rule="evenodd" d="M72.7132 2023.86C73.7215 2022.24 69.2402 2017.93 68.2039 2017.76C68.3999 2019.52 71.5368 2023.38 72.7132 2023.86Z" fill="#E8D9BC"/>
<path fill-rule="evenodd" clip-rule="evenodd" d="M48.4021 1959.45C48.094 1958.03 48.01 1957.83 48.2341 1955.96C48.4581 1953.97 48.7662 1954.02 46.8056 1953.83L46.6936 1959.73L48.4021 1959.45Z" fill="#E8D9BC"/>
<path fill-rule="evenodd" clip-rule="evenodd" d="M141.753 1931.3C142.818 1932.19 142.678 1932.86 143.63 1933.84C146.039 1932.86 141.921 1929.03 141.473 1929C138.448 1928.69 141.641 1931.21 141.753 1931.3Z" fill="#E8D9BC"/>
<path fill-rule="evenodd" clip-rule="evenodd" d="M21.9344 1955.31C20.2539 1955.68 20.45 1956.6 20.506 1958.45C20.534 1960.29 20.2819 1961.39 21.9904 1961.47L21.9344 1955.31Z" fill="#E8D9BC"/>
<path fill-rule="evenodd" clip-rule="evenodd" d="M136.572 2023.41C138.14 2021.71 136.572 2017.51 135.76 2016.81C135.479 2017.03 135.059 2016.33 135.059 2018.09L136.572 2023.41Z" fill="#E8D9BC"/>
<path fill-rule="evenodd" clip-rule="evenodd" d="M158.894 1945.01C159.847 1943.56 159.23 1943.42 158.502 1941.88C157.914 1940.67 158.082 1939.72 156.318 1939.97C156.261 1941.51 157.802 1944.54 158.894 1945.01Z" fill="#E8D9BC"/>
<path fill-rule="evenodd" clip-rule="evenodd" d="M71.873 1950.11C72.4331 1948.85 70.8647 1944.82 69.4083 1944.12C68.68 1945.24 69.5203 1946.16 70.0805 1947.42C71.7049 1951.17 70.5286 1949.66 71.873 1950.11Z" fill="#E8D9BC"/>
<path fill-rule="evenodd" clip-rule="evenodd" d="M114.753 2001.72C115.93 1999.45 111.981 1995.7 111.084 1995.56C111.084 1997.16 111.869 1997.66 112.597 1998.59C113.437 1999.65 114.081 2000.77 114.753 2001.72Z" fill="#E8D9BC"/>
<path fill-rule="evenodd" clip-rule="evenodd" d="M135.535 1961.36C136.012 1962.51 136.376 1962.76 137.048 1963.77C137.832 1964.94 137.58 1965.64 138.644 1966.23C139.569 1964.86 137.132 1961.16 136.292 1960.32C135.563 1960.99 136.012 1959.9 135.535 1961.36Z" fill="#E8D9BC"/>
<path fill-rule="evenodd" clip-rule="evenodd" d="M109.012 1966.62C108.452 1965.16 107.555 1963.04 105.875 1962.59C104.727 1963.88 104.895 1963.68 106.155 1964.77C107.499 1965.95 106.995 1965.64 107.975 1967.07L109.012 1966.62Z" fill="#E8D9BC"/>
<path fill-rule="evenodd" clip-rule="evenodd" d="M85.1768 1936.03C84.8687 1933.82 83.1322 1931.58 81.8158 1930.79C81.0316 1932.14 82.0119 1932.28 82.9362 1933.73C83.9165 1935.33 83.5243 1935.63 85.1768 1936.03Z" fill="#E8D9BC"/>
<path fill-rule="evenodd" clip-rule="evenodd" d="M84.3926 1974.91C83.8044 1974.18 82.8801 1972.67 82.264 1972.25C82.2359 1974.63 84.4766 1976.98 85.961 1977.9C86.7453 1975.94 85.849 1976.64 84.3926 1974.91Z" fill="#E8D9BC"/>
<path fill-rule="evenodd" clip-rule="evenodd" d="M56.5245 2001.69C57.6448 2000.32 56.6365 1998.39 56.2164 1996.54C54.816 1997.13 54.928 1997.19 55.4042 1999.03C55.7122 2000.21 55.9643 2001.1 56.5245 2001.69Z" fill="#E8D9BC"/>
<path fill-rule="evenodd" clip-rule="evenodd" d="M55.3761 1973.25C53.7797 1969.76 54.2278 1970.79 53.3596 1970.62C53.5276 1972.11 55.1241 1975.52 56.1044 1976.53C56.7766 1975.41 55.8523 1974.29 55.3761 1973.25Z" fill="#E8D9BC"/>
<path fill-rule="evenodd" clip-rule="evenodd" d="M142.481 1935.13C142.257 1934.24 140.605 1931.77 139.485 1931.1C138.616 1932.3 139.681 1932.78 140.493 1933.79C141.333 1934.85 141.361 1935.16 141.977 1936.36C142.622 1935.91 142.846 1936.5 142.481 1935.13Z" fill="#E8D9BC"/>
<path fill-rule="evenodd" clip-rule="evenodd" d="M51.315 2014.57C51.6511 2012.94 50.0266 2010.26 49.0463 2009.47C48.7942 2009.7 48.2341 2009.61 48.6262 2010.73C48.6822 2010.96 50.3907 2014.18 51.315 2014.57Z" fill="#E8D9BC"/>
<path fill-rule="evenodd" clip-rule="evenodd" d="M31.7653 1932.08C32.5215 1930.79 32.5215 1930.65 32.9697 1929.08C33.922 1925.73 33.1097 1926.87 32.4655 1926.71C31.6253 1927.97 31.0931 1931.02 31.7653 1932.08Z" fill="#E8D9BC"/>
<path fill-rule="evenodd" clip-rule="evenodd" d="M131.95 1944.65C132.623 1943.08 130.606 1940.93 129.122 1940.67C128.477 1941.99 129.262 1942.21 130.046 1943C130.942 1943.84 130.886 1944.14 131.95 1944.65Z" fill="#E8D9BC"/>
<path fill-rule="evenodd" clip-rule="evenodd" d="M71.0327 1975.58C71.5369 1974.57 71.1447 1973.98 70.8927 1973.09C70.5006 1971.66 70.8367 1971.1 69.8004 1970.62C69.1001 1971.83 69.3522 1975.19 71.0327 1975.58Z" fill="#E8D9BC"/>
<path fill-rule="evenodd" clip-rule="evenodd" d="M122.848 2021.43C122.764 2019.75 120.495 2017.03 119.291 2015.8C119.179 2017.65 121.279 2020.78 122.848 2021.43Z" fill="#E8D9BC"/>
<path fill-rule="evenodd" clip-rule="evenodd" d="M52.6314 1941.6C54.1158 1941.6 53.9758 1941.04 54.2278 1939.64C54.4799 1938.24 54.6479 1937.59 54.0318 1936.5C53.7237 1936.75 53.7517 1936.47 53.4436 1937.09L52.6314 1941.6Z" fill="#E8D9BC"/>
<path fill-rule="evenodd" clip-rule="evenodd" d="M133.631 1918.48C135.087 1916.6 131.782 1914.81 131.25 1914.61C131.278 1916.15 131.362 1915.99 132.062 1916.94C132.679 1917.78 132.763 1918.06 133.631 1918.48Z" fill="#E8D9BC"/>
<path fill-rule="evenodd" clip-rule="evenodd" d="M97.8365 1916.77L100.357 1919.26C101.898 1920.66 101.393 1918.81 101.169 1918.45C100.497 1917.53 98.7327 1915.2 97.8365 1916.77Z" fill="#E8D9BC"/>
<path fill-rule="evenodd" clip-rule="evenodd" d="M53.6116 1958.7C52.7154 1959.9 52.5753 1962.09 53.6116 1963.43C54.6479 1962.31 54.6199 1959.82 53.6116 1958.7Z" fill="#E8D9BC"/>
<path fill-rule="evenodd" clip-rule="evenodd" d="M34.5381 1949.99C33.5018 1950.81 33.9499 1949.97 33.9499 1951.81C33.9219 1953.3 33.8099 1953.13 34.286 1954.08C35.9945 1953.52 35.4064 1951.17 34.5381 1949.99Z" fill="#E8D9BC"/>
<path fill-rule="evenodd" clip-rule="evenodd" d="M124.976 1990.3C125.985 1988.82 125.257 1986.91 124.248 1985.93C123.828 1986.77 123.912 1987 124.136 1987.89L124.976 1990.3Z" fill="#E8D9BC"/>
<path fill-rule="evenodd" clip-rule="evenodd" d="M60.5577 2030.94C60.1376 2029.71 60.0255 2030.16 59.0172 2029.35C58.149 2028.65 58.205 2028.42 57.2807 2027.72C57.6448 2029.57 58.6811 2030.94 60.5577 2030.94Z" fill="#E8D9BC"/>
<path fill-rule="evenodd" clip-rule="evenodd" d="M25.9116 1960.07C28.2082 1959.79 27.228 1957.38 26.0516 1956.85L25.9116 1960.07Z" fill="#E8D9BC"/>
<path fill-rule="evenodd" clip-rule="evenodd" d="M105.791 1896.17C105.455 1894.74 104.362 1894.27 103.046 1894.18C103.27 1895.83 104.138 1896.06 105.791 1896.17Z" fill="#E8D9BC"/>
<path fill-rule="evenodd" clip-rule="evenodd" d="M155.197 1986.91C155.309 1984.98 155.533 1985.09 154.049 1984.7C153.069 1986.3 153.237 1986.77 155.197 1986.91Z" fill="#E8D9BC"/>
<path fill-rule="evenodd" clip-rule="evenodd" d="M155.785 1979.69C155.337 1977.59 156.289 1978.26 154.413 1977.87C154.413 1977.87 153.489 1978.15 154.189 1979.41C154.609 1980.17 154.973 1979.92 155.785 1979.69Z" fill="#E8D9BC"/>
<path fill-rule="evenodd" clip-rule="evenodd" d="M115.986 1928.72V1926.9C114.893 1926.99 114.137 1926.9 114.389 1928.11C114.417 1928.3 114.697 1928.67 114.865 1928.75C116.294 1929.56 115.986 1928.72 115.986 1928.72Z" fill="#E8D9BC"/>
<path fill-rule="evenodd" clip-rule="evenodd" d="M148.867 1979.44C152.929 1981.26 146.151 1982.99 148.867 1979.44Z" fill="#E8D9BC"/>
<path fill-rule="evenodd" clip-rule="evenodd" d="M115.846 1933.48C116.602 1932.14 116.49 1931.46 114.753 1931.24C114.445 1933.09 114.305 1933 115.846 1933.48Z" fill="#E8D9BC"/>
<path fill-rule="evenodd" clip-rule="evenodd" d="M46.5536 1914.81C47.2258 1913.72 46.9737 1913.38 46.6376 1912.43C44.565 1913.05 44.9851 1914.19 46.5536 1914.81Z" fill="#E8D9BC"/>
<path fill-rule="evenodd" clip-rule="evenodd" d="M23.951 1979.33C24.9593 1978.43 25.6315 1977.12 23.4468 1976.86C22.8026 1978.15 23.5869 1978.49 23.951 1979.33Z" fill="#E8D9BC"/>
<path fill-rule="evenodd" clip-rule="evenodd" d="M79.4352 2034.22C81.4517 2034.44 81.4237 2033.99 80.9756 2032.34C79.4632 2032.87 79.5752 2032.37 79.4352 2034.22Z" fill="#E8D9BC"/>
<path fill-rule="evenodd" clip-rule="evenodd" d="M83.9724 1892.56C83.8324 1892.81 83.3283 1891.89 83.7204 1893.59C83.9164 1894.41 84.1405 1894.29 84.3085 1894.49C86.1571 1893.57 85.2888 1891.94 83.9724 1892.56Z" fill="#E8D9BC"/>
<path fill-rule="evenodd" clip-rule="evenodd" d="M147.635 2011.66L149.231 2011.4C149.315 2010.23 149.259 2010.26 148.839 2009.64C147.607 2009.92 147.579 2010.26 147.635 2011.66Z" fill="#E8D9BC"/>
<path fill-rule="evenodd" clip-rule="evenodd" d="M46.8057 1908.71C47.1698 1909.8 47.0858 1909.74 48.1501 1910.22C49.1024 1908.18 48.2901 1908.37 48.2341 1908.23C47.3098 1908.01 46.8617 1908.51 46.8057 1908.71Z" fill="#E8D9BC"/>
<path fill-rule="evenodd" clip-rule="evenodd" d="M29.5526 1977.03C30.0568 1975.8 29.6366 1975.44 28.8804 1974.82C27.7041 1976.16 27.7321 1976.72 29.5526 1977.03Z" fill="#E8D9BC"/>
<path fill-rule="evenodd" clip-rule="evenodd" d="M83.4963 2032.48C84.4206 2032.09 84.5607 2032.71 84.4206 2030.89L82.8522 2030.55C82.7401 2032.09 82.6841 2031.75 83.4963 2032.48Z" fill="#E8D9BC"/>
<path fill-rule="evenodd" clip-rule="evenodd" d="M25.4074 1973.7C25.9676 1972.58 25.9676 1972.86 25.4074 1971.77C23.6429 1972.19 23.4188 1973.42 25.4074 1973.7Z" fill="#E8D9BC"/>
<path fill-rule="evenodd" clip-rule="evenodd" d="M79.7153 2038.33C81.3677 2037.86 81.2557 2037.13 80.1634 2036.18C79.2391 2037.13 79.1831 2036.85 79.7153 2038.33Z" fill="#E8D9BC"/>
<path fill-rule="evenodd" clip-rule="evenodd" d="M149.596 2014.65C151.304 2014.85 150.492 2014.96 151.36 2014.4C151.052 2012.19 149.652 2013.31 149.596 2014.65Z" fill="#E8D9BC"/>
<path fill-rule="evenodd" clip-rule="evenodd" d="M50.3067 1913.94C50.8669 1912.93 50.7268 1912.93 50.3067 1912.07C49.6065 1912.35 49.3544 1912.23 49.2424 1912.93C49.0183 1914.08 49.9146 1913.86 50.3067 1913.94Z" fill="#E8D9BC"/>
<path fill-rule="evenodd" clip-rule="evenodd" d="M26.8358 1979.1L27.34 1980.39L28.6284 1979.66C28.0682 1978.49 28.5443 1979.19 27.8441 1978.52L26.8358 1979.1Z" fill="#E8D9BC"/>
<path fill-rule="evenodd" clip-rule="evenodd" d="M88.7338 1894.91L88.2017 1893.09C87.3054 1893.79 87.3334 1893.2 87.4454 1894.13C87.5855 1895.33 87.6975 1894.88 88.7338 1894.91Z" fill="#E8D9BC"/>
<path fill-rule="evenodd" clip-rule="evenodd" d="M84.1124 2036.96C85.5129 2036.85 85.961 2036.18 84.7286 2035.36C84.0284 2035.98 83.9444 2035.7 84.1124 2036.96Z" fill="#E8D9BC"/>
<path fill-rule="evenodd" clip-rule="evenodd" d="M120.999 1928.11C121.811 1929.37 120.719 1928.78 122.4 1928.92L122.204 1927.41L120.999 1928.11Z" fill="#E8D9BC"/>
<path fill-rule="evenodd" clip-rule="evenodd" d="M102.535 186.297C103.578 186.503 104.652 186.688 105.69 186.918C110.24 187.841 108.615 188.577 106.897 198.647C105.13 209.235 108.932 210.063 100.62 208.374C101.337 204.87 100.842 194.76 102.535 186.297ZM114.296 211.278C115.412 203.863 117.038 196.813 118.297 189.347L126.383 190.701C126.262 194.27 123.092 200.435 122.045 204.007C119.811 211.729 120.403 212.348 118.353 212.156C117.468 212.087 115.192 211.56 114.296 211.278ZM127.593 213.42L121.212 212.534C122.427 208.916 123.071 204.975 124.407 201.407C125.744 197.84 126.857 194.467 128.24 191.067L134.26 191.909C132.575 199.528 129.207 205.628 127.593 213.42ZM110.185 187.988C112.067 188.227 114.988 188.564 116.227 189.389C116.869 191.364 113.309 207.966 112.317 210.994L107.522 209.706C108.155 202.593 108.818 195.063 110.185 187.988ZM140.94 215.308L136.818 214.496C138.695 204.828 142.639 198.894 144.237 192.922L148.685 193.56C146.923 201.164 143.12 208.129 140.94 215.308ZM75.3023 179.483L81.7057 181.061L82.0141 193.458C82.0992 196.248 82.6784 204.181 82.348 205.86L77.0655 204.899L76.4206 201.998C75.8943 196.347 74.5029 184.08 75.3023 179.483ZM92.4618 183.891L100.728 185.809L98.8071 207.515C98.7207 207.551 98.6035 207.475 98.5326 207.567L91.4404 206.937C91.8213 205.136 91.3209 199.622 91.6847 195.626C92.0636 191.553 92.2911 187.847 92.4618 183.891ZM83.4828 181.701C84.6738 181.962 89.9359 182.892 90.5541 183.78C91.6629 185.398 89.885 197.517 89.8804 200.897C89.8662 202.849 90.1268 204.882 89.5277 206.851L83.9916 206.104C84.7096 203.128 83.1605 192.468 83.2236 188.254C83.2578 186.2 83.5149 183.821 83.4828 181.701ZM67.6637 178.138L73.4347 179.168C74.1271 182.633 73.8674 192.276 74.3032 198.253C74.4887 200.667 75.0631 202.18 75.0201 204.681L69.32 203.559C68.3156 197.92 67.1237 184.371 67.6637 178.138ZM135.017 214.247L129.221 213.608C130.886 205.826 133.862 199.703 135.842 192.062L142.579 192.886C139.46 202.152 138.563 201.738 135.017 214.247ZM71.5396 139.25C71.8463 136.484 73.6803 127.705 74.6136 125.247C76.8439 119.557 78.7264 108.384 82.6037 99.1621C83.3054 97.4775 84.3371 95.5938 85.1706 93.7766C89.277 84.5997 94.1325 75.9137 98.5993 66.5172C102.096 59.0958 106.859 53.4295 110.923 46.8858C112.674 44.0341 114.441 44.8576 120.742 42.9281C122.932 42.2762 129.754 40.9247 132.073 40.8265C142.198 40.416 153.312 47.0684 156.972 54.5251C162.987 66.804 165.696 61.4995 164.964 80.9297C164.413 95.0067 166.365 104.425 164.037 119.473C162.636 128.47 162.399 137.457 161.883 146.39C161.472 153.31 157.726 166.837 155.243 173.137C153.583 177.407 152.544 181.878 151.199 186.157C150.182 189.311 151.133 190.793 147.77 190.553C145.557 190.382 142.793 189.653 140.57 189.532L127.798 187.81C118.205 186.186 93.5877 181.26 85.1403 178.25C83.0169 177.488 73.4373 175.127 71.2968 175.392C68.0633 175.839 66.7413 179.198 67.4929 167.458C68.0896 158.251 70.5207 148.453 71.5396 139.25ZM37.2814 154.695C41.1476 138.682 43.7371 132.376 50.2452 118.653C52.5292 113.899 56.1708 108.963 59.8978 105.338C61.3328 103.956 62.4438 103.012 63.6857 101.672L74.82 90.4974C75.7533 89.6508 77.7569 87.932 78.8482 87.2223C83.6453 84.2043 84.377 82.3671 87.268 81.3777C86.2701 84.2983 84.6043 86.7177 83.2801 89.4156C79.4541 97.1684 75.8663 107.874 73.3602 116.441C69.1428 130.747 67.7554 144.105 65.0481 158.26L37.2814 154.695ZM184.73 185.282C184.71 185.252 184.654 185.399 184.644 185.45C171.071 182.831 170.364 182.665 156.458 181.063C157.168 177.32 159.038 173.461 160.136 169.9C163.792 158.178 165.927 146.394 165.909 134.133C165.909 129.431 166.733 130.888 167.237 129.402C167.64 128.293 167.61 125.222 167.763 123.773C168.933 114.071 169.287 110.125 169.343 100.442C169.371 96.2734 168.351 93.9329 168.821 89.7989C172.316 91.5171 174.394 95.598 175.985 98.6586C177.694 101.927 179.448 104.967 180.519 109.061C184.405 123.695 188.307 156.506 186.622 172.05C186.349 174.506 186.072 176.987 185.897 179.357C185.814 180.45 185.731 181.675 185.506 182.82L184.791 185.109C184.786 185.134 184.72 185.333 184.73 185.282ZM115.336 41.5204C116.968 38.0642 128.913 27.4718 133.426 24.8206L139.529 21.2142C143.455 19.3983 143.824 18.7314 146.867 19.3834C151.988 20.4971 154.078 19.0067 156.616 23.7065C159.338 28.8123 158.884 26.821 160.2 32.7595L162.164 42.9203C162.709 46.3296 163.58 50.0937 163.292 53.8409C162.069 53.0718 160.837 52.75 160.7 54.3872C162.101 55.3236 161.87 54.4855 163.577 53.8706C163.651 56.5797 164.106 60.4467 164.371 62.1895C163.535 61.6023 163.546 61.9479 162.866 60.7045L159.799 54.2627C157.764 47.6807 152.905 43.8976 146.528 40.9779C137.171 36.6791 130.553 37.8064 122.384 39.5532L115.336 41.5204ZM34.8097 156.375C37.0936 158.066 59.5573 160.639 64.6455 161.245L64.3048 172.642C64.1616 175.652 64.9366 200.583 66.3415 202.576C67.4144 204.108 67.7711 202.699 67.381 204.815C68.2512 204.96 68.9541 205.283 69.3254 205.277L76.8155 206.303C79.1366 206.865 84.5472 208.115 86.6655 208.902C89.3746 209.911 86.8675 208.414 90.7562 209.338C92.8228 209.85 93.2688 209.331 95.3721 210.194C103.21 213.348 116.424 216.716 125.062 217.28C128.379 217.484 131.35 217.699 135.076 218.512C137.102 218.964 137.876 219.46 139.358 218.246C140.682 217.159 140.432 217.084 142.218 217.409L142.727 217.509C142.778 217.519 142.885 217.514 142.916 217.493C144.747 217.59 154.304 186.9 155.614 184.543C162.262 184.478 180.859 186.686 186.158 189.578C186.772 189.144 186.508 189.277 187.087 189.022C187.178 188.96 187.513 188.868 187.63 188.812C187.686 188.796 187.803 188.74 187.889 188.704C187.945 188.689 188.067 188.607 188.123 188.592C188.184 188.551 188.301 188.494 188.387 188.459L190.577 168.338L190.38 155.646C190.099 153.583 190.397 151.396 190.151 149.287L188.402 131.455C188.223 129.677 187.861 127.624 187.559 125.531C185.907 114.586 183.553 103.451 176.583 94.6818L173.209 90.7419C172.407 89.7123 169.124 87.4547 168.91 87.069L168.677 74.4226C168.475 70.077 168.503 66.0408 168.317 61.8833C168.245 59.9671 167.812 58.1384 167.648 56.1514C167.484 54.0321 167.223 52.1317 167.019 50.0838C166.295 43.0202 164.766 34.0019 162.239 27.7721C158.866 19.5267 148.683 12.8462 138.552 17.8519C136.855 18.6803 135.185 19.5137 133.718 20.3872C122.996 26.9145 113.885 36.1364 106.894 46.6737C105.8 48.334 104.65 49.6132 103.557 51.4057C101.507 54.7005 99.6411 58.137 97.5356 61.4472L92.0101 72.1939C87.0836 80.9716 89.774 76.0331 84.3641 79.8814C83.0142 80.8308 81.3372 81.2931 79.7686 82.2787C78.8346 82.8609 78.3673 83.0859 77.4742 83.729C74.0642 86.2805 74.8393 85.2972 71.2588 88.5811C63.7171 95.4703 59.4311 99.2494 52.5068 108.373C50.1565 111.45 48.5253 115.171 46.6901 118.719C42.8733 126.157 35.1006 148.586 34.8097 156.375Z" fill="#E8D9BC"/>
<path fill-rule="evenodd" clip-rule="evenodd" d="M75.1846 216.601C74.6369 215.489 74.926 215.229 73.5365 214.903C73.1314 215.483 73.7742 232.358 74.0766 234.716C74.8332 240.808 73.7583 238.615 75.504 242.235C76.2002 243.666 75.2512 242.713 77.1501 243.272C77.1501 243.272 77.6899 243.484 77.8885 243.549C78.5276 242.988 78.5063 242.694 78.9731 242.337C79.5313 241.918 79.2939 242.453 80.4203 241.565L82.3101 239.216C82.3706 239.043 82.4978 239.068 82.6196 238.986C82.0468 242.836 81.8444 246.415 81.2106 250.306C80.6014 253.937 81.1045 257.021 80.6075 260.753C80.2003 263.896 80.2386 267.998 80.3549 271.032C80.4708 273.935 80.4094 278.677 82.3646 279.353C83.7947 277.997 82.1656 279.155 84.0384 276.222C85.0354 274.648 85.7463 274.26 86.4183 272.86C87.4742 270.585 89.4537 267.646 91.1892 266.35L91.3994 266.893C91.4924 267.361 91.4353 266.98 91.4928 267.493L91.827 283.25C92.1819 287.758 91.775 295.867 95.1736 297.804C97.4075 296.526 97.1682 293.177 99.4042 289.338C104.13 281.313 108.618 272.211 112.938 264.635L113.589 266.428C113.718 267.114 113.775 267.362 113.95 268.084C114.398 269.836 114.069 270.168 116.298 270.527C116.475 270.166 118.154 265.662 118.169 265.454C118.8 260.902 117.61 262.385 120.53 254.533L122.418 249.912C122.478 249.739 122.585 249.734 122.682 249.647C123.447 250.458 123.212 250.042 123.533 251.902C123.938 254.412 123.969 256.399 126.224 257.028C129.611 251.909 127.385 253.954 127.705 250.847C128.027 247.873 132.028 242.453 132.33 241.588C133.031 239.507 133.135 240.188 133.969 238.503C134.909 236.548 136.677 234.281 135.018 232.633C134.231 232.875 134.763 232.319 133.841 233.379L132.04 236.485C130.401 239.438 126.097 248.814 125.041 249.478C124.028 247.508 124.669 246.129 122.759 245.224C121.988 245.918 121.191 247.821 120.751 248.844C120.095 250.432 119.804 251.643 119.112 253.277L116.155 260.646C115.842 261.297 115.947 261.028 115.623 261.333C114.893 257.386 116.241 253.9 112.967 253.071C112.368 259.874 107.663 266.186 104.898 271.638C103.376 274.667 101.762 277.36 100.22 280.227C99.4007 281.703 96.628 287.999 95.7612 288.911L95.3637 287.037C94.6901 281.462 95.057 270.334 94.4547 266.412C94.0551 263.876 93.8562 262.067 90.6762 261.705C90.1701 262.53 89.8126 263.675 89.1393 264.678C88.6228 265.422 87.6487 266.208 87.0713 266.992L83.4048 272.056C82.9893 270.944 83.2476 267.349 83.382 266.398C83.7666 264.175 84.1129 262.685 84.1267 260.601C84.1928 252.478 86.701 242.96 86.3737 237.506C86.2774 235.982 86.4313 236.408 85.99 235.159C85.2767 233.143 84.9121 230.43 82.8034 229.46C81.3078 231.015 79.5757 234.979 78.0071 235.965C77.3981 233.151 77.6753 227.446 77.6445 224.112C77.5795 217.997 75.983 218.185 75.1846 216.601Z" fill="#E8D9BC"/>
<path fill-rule="evenodd" clip-rule="evenodd" d="M131.395 68.166C132.937 68.3903 141.063 70.8881 142.189 71.6118C151.479 77.4561 155.528 80.657 152.363 96.4648C150.74 104.572 147.393 109.355 142.717 113.638C138.66 117.33 129.748 118.693 124.369 117.687C117.916 116.496 105.62 110.746 103.526 104.734C103.043 103.292 102.276 102.084 102.119 100.468C101.804 97.3682 101.957 92.6963 103.544 89.4689C105.207 86.1244 109.04 79.007 112.131 76.8682L114.931 74.7252C117.35 72.3748 119.373 71.7692 123.002 71.1894C124.858 70.8943 125.629 70.2007 127.326 69.7688C129.893 69.0853 129.325 69.6868 131.395 68.166ZM134.642 65.5032C128.879 65.3724 130.731 65.6314 123.764 67.4561C121.675 67.9959 120.638 68.1615 118.596 69.0011C113.247 71.1972 109.661 72.8952 106.106 77.6634C104.916 79.2782 104.229 80.7543 103.105 82.435C99.6063 87.5842 98.6504 92.5736 99.2977 99.49C99.5458 102.392 101.662 107.352 102.762 109.55C104.851 113.712 121.175 124.243 127.199 121.705C128.784 121.039 127.044 120.881 129.7 121.219C135.755 122.015 138.121 122.349 143.539 119.268C148.748 116.305 147.597 115.841 148.807 113.992C149.343 113.146 149.892 113.043 150.626 111.867C152.671 108.73 154.029 103.978 155.08 99.9847C155.909 96.846 156.769 90.3319 156.616 87.079C156.346 80.2632 151.766 73.1803 146.114 69.6637C142.603 67.4932 139.225 65.5866 134.642 65.5032Z" fill="#E8D9BC"/>
<path fill-rule="evenodd" clip-rule="evenodd" d="M133.657 77.355C133.815 77.3597 134.038 77.298 134.568 77.4287L136.667 78.5816C140.586 81.2288 141.369 81.1452 143.151 84.7186C145.418 89.3124 145.127 92.0023 143.293 97.8228C141.682 102.921 139.263 105.271 135.894 107.884C131.454 111.368 129.548 110.042 122.918 109.08C114.873 107.919 111.986 102.173 112.259 95.2793C112.317 94.1811 112.241 92.6869 112.385 91.5529C112.568 89.819 117.355 80.5385 120.987 78.8759C127.879 75.6892 131.353 77.5091 133.657 77.355ZM110.422 91.7213C109.907 99.3069 111.662 107.577 117.844 111.489C121.585 113.837 121.298 113.278 125.546 113.718C128.182 114.026 130.36 114.376 132.698 113.779L137.322 112.444C139.136 111.824 138.725 112.033 139.941 110.556C142.55 107.371 146.424 101.926 146.769 96.6843C147.181 90.2935 148.475 89.2273 143.94 81.9155C142.575 79.7184 141.798 78.2974 139.428 76.7741C133.241 72.7559 125.26 74.0905 119.167 77.646C118.274 78.1569 118.476 77.9326 117.679 78.3568C113.52 80.5495 110.802 86.3014 110.422 91.7213Z" fill="#E8D9BC"/>
<path fill-rule="evenodd" clip-rule="evenodd" d="M113.158 235.858C113.594 235.654 114.577 239.255 114.819 240.042C115.461 242.018 115.235 243.03 117.577 243.755C119.333 242.622 121.335 240.242 122.238 238.069C123.157 235.819 123.283 237.059 124.36 234.947C124.956 233.796 125.701 232.833 126.425 231.84C124.088 229.478 126.743 231.031 122.884 228.343C121.342 231.209 118.336 236.006 116.379 238.025C115.407 236.248 116.507 236.571 115 234.689C114.061 233.553 113.875 232.75 111.945 232.08C110.814 234.605 109.462 236.372 107.81 238.451C105.601 241.213 105.603 241.873 104.273 244.332L103.757 245.076C103.716 245.147 103.62 245.234 103.528 245.295C101.698 237.406 104.046 231.925 100.312 229.948C99.4949 230.606 96.9543 234.65 96.1591 235.735C95.7603 235.075 95.9414 236.035 95.6314 234.521C95.1609 232.078 95.3226 223.603 93.4996 221.316C92.1414 219.622 91.7259 218.51 90.2754 218.225C89.8945 220.025 91.6445 223.355 91.6707 226.847L92.7225 236.273C93.2026 238.534 93.3098 240.272 95.7176 240.931C96.8044 238.767 98.4093 236.389 100.39 235.326C100.249 237.385 100.457 239.143 100.388 241.243C100.324 243.581 99.857 245.55 99.8795 247.852C99.8853 249.703 99.7088 251.808 99.6441 253.882C99.5911 254.822 99.574 255.849 99.6177 256.835C99.639 257.13 99.6924 257.933 99.77 258.345C100.23 260.707 100.775 259.414 101.262 258.955C101.298 259.042 101.395 259.087 101.4 259.194C101.391 259.377 101.58 259.625 101.62 259.686C102.015 260.504 101.585 259.864 102.061 260.539C103.406 259.615 102.731 258.743 103.087 256.937C103.618 254.241 104.245 253.335 104.701 251.021C105.402 247.593 106.097 248.628 107.222 245.6C108.226 242.918 113.481 238.511 112.869 236.118L113.158 235.858Z" fill="#E8D9BC"/>
<path fill-rule="evenodd" clip-rule="evenodd" d="M164.955 219.402C164.376 217.914 165 217.562 164.68 216.098C163.06 208.621 164.473 211.514 164.353 207.422L163.794 205.833C162.457 206.177 162.448 206.493 161.414 207.716C160.178 209.163 160.64 209.095 158.985 210.117C159.218 208.261 159.509 206.918 159.865 205.112C160.27 202.92 159.643 202.612 159.714 200.777C159.857 197.899 159.912 198.967 158.548 197.298C157.971 196.603 157.653 195.537 156.762 195.229C154.557 194.478 156.304 196.751 155.842 200.437C155.197 205.461 154.487 207.725 155.12 213.371C155.402 215.698 155.731 216.846 157.941 217.572C158.877 216.171 159.119 215.479 161.416 214.954C160.959 218.483 158.793 228.147 160.756 231.466C161.411 232.572 161.161 232.365 162.733 232.701C163.38 231.296 163.581 228.8 164.415 227.379L172.13 215.452C172.929 214.209 173.667 212.611 174.502 211.19C176.693 207.58 176.275 207.551 176.777 206.751C178.386 204.083 179.074 199.648 180.275 196.636L179.258 195.352L171.991 206.892C169.634 211.077 167.189 214.902 164.955 219.402Z" fill="#E8D9BC"/>
<path fill-rule="evenodd" clip-rule="evenodd" d="M39.3689 191.085C40.8528 187.441 41.4852 186.377 44.5423 183.201C44.5782 183.287 44.6495 183.328 44.6499 183.46L44.8574 196.101C44.773 198.409 44.1793 203.708 45.1012 205.739C45.306 206.175 45.6176 206.606 45.9538 206.778C48.8427 208.351 47.0665 204.752 49.4077 198.767C50.5884 195.724 51.2066 193.389 52.439 190.62C54.5704 185.836 55.6619 178.681 58.4311 174.55C57.2618 174.716 57.3886 174.609 56.6398 175.862C55.4003 177.995 54.4541 181.19 53.3532 183.694L48.7708 193.543C48.6173 193.249 48.4196 193.448 48.211 191.822C48.1326 191.146 48.1464 190.673 48.078 189.947C47.7368 186.577 47.0535 186.02 46.747 182.341C46.5935 180.435 46.7141 179.957 45.3634 179.031C43.5362 178.644 42.8758 182.133 41.0027 183.323C41.4708 178.528 43.6573 171.853 40.6906 168.125C38.8217 165.803 38.9956 169.35 38.7252 170.723C37.9797 174.645 37.625 178.326 37.2607 182.19C36.9015 186.029 35.5761 189.942 39.3689 191.085Z" fill="#E8D9BC"/>
<path fill-rule="evenodd" clip-rule="evenodd" d="M120.104 89.4008C122.256 89.3488 128.165 87.5272 131.617 86.9123C130.718 90.5393 122.615 95.1782 121.983 97.986C125.558 97.9503 126.97 95.7451 130.555 95.5264C128.769 99.9031 125.647 100.187 125.695 102.626L133.538 102.533C133.966 99.8169 131.962 101.271 128.295 101.236C129.999 98.0849 133.699 95.5376 132.411 93.7521C131.442 92.6366 127.904 95.163 125.952 95.2804C128.109 92.2446 132.985 90.0346 133.855 85.3453C132.18 84.9892 125.799 87.1935 122.789 87.5783C123.587 85.6749 126.261 83.639 127.672 81.0374C125.699 81.2565 126.637 81.996 123.655 84.7902C122.611 85.7997 120.475 87.6511 120.104 89.4008Z" fill="#E8D9BC"/>
<path fill-rule="evenodd" clip-rule="evenodd" d="M47.5144 135.075C49.4067 135.13 49.6791 132.806 50.345 131.036C51.1723 128.847 51.8293 127.524 52.8097 125.498C54.4067 122.22 56.3432 118.559 58.3636 115.681C61.0069 111.922 64.7273 106.183 68.1672 103.479C68.5477 103.157 71.9981 100.535 70.974 99.9632C69.4505 99.1086 61.8972 108.743 60.5142 110.531C56.1527 116.171 55.1485 117.109 51.6217 124.551C50.7627 126.363 47.2008 133.983 47.5144 135.075Z" fill="#E8D9BC"/>
<path fill-rule="evenodd" clip-rule="evenodd" d="M146.112 167.826C146.887 166.843 146.918 165.475 147.274 163.934C147.801 161.528 147.928 161.553 147.155 159.842C145.219 155.578 148.781 156.279 148.883 153.077C149.035 149.487 146.832 149.265 149.125 145.675C151.64 141.758 148.88 138.996 148.097 140.691C147.036 142.992 149.325 141.303 148.443 144.035C147.879 145.694 146.613 146.078 146.23 147.086C145.564 148.725 148.117 151.869 146.786 154.196C146.098 155.408 145.138 155.588 144.822 157.19C144.552 158.564 145.262 159.522 145.749 160.807C146.805 163.498 144 165.931 146.112 167.826Z" fill="#E8D9BC"/>
<path fill-rule="evenodd" clip-rule="evenodd" d="M154.36 123.38C155.214 124.816 156.736 125.274 156.016 127.589C155.507 129.232 154.162 130.156 153.604 132.318C153.642 132.933 156.717 135.441 153.949 140.1C152.401 142.727 153.143 144.194 154.487 147.708C155.732 147.557 154.726 147.834 156.076 146.885C155.675 145.3 154.343 144.14 154.825 141.963C155.451 139.048 156.267 141.084 156.547 136.437C156.711 133.59 155.553 132.358 155.752 131.209C156.012 129.754 157.692 128.606 158.299 125.793C157.308 124.515 156.462 122.235 155.732 121.51C154.752 121.925 154.752 122.057 154.36 123.38Z" fill="#E8D9BC"/>
<path fill-rule="evenodd" clip-rule="evenodd" d="M80.8451 127.161C83.1725 126.483 81.3383 123.85 83.851 115.786C84.6871 113.15 88.3074 104.697 87.3509 102.976C85.5462 103.281 86.2354 104.077 84.8532 107.741C83.5366 111.207 79.4489 124.72 80.8451 127.161Z" fill="#E8D9BC"/>
<path fill-rule="evenodd" clip-rule="evenodd" d="M168.985 150.192C170.196 150.219 169.306 150.176 170.709 150.03C171.825 144.226 171.38 145.011 171.747 140.592C171.87 139.031 172.154 138.797 170.952 138.19C169.412 140.238 170.938 143.629 168.985 150.192Z" fill="#E8D9BC"/>
<path fill-rule="evenodd" clip-rule="evenodd" d="M115.674 152.588C118.064 152.398 117.056 150.668 117.546 147.911C117.956 145.694 118.712 143.333 118.924 141.182C116.909 141.076 117.787 141.988 116.899 145.829C116.367 148.128 116.053 150.259 115.674 152.588Z" fill="#E8D9BC"/>
<path fill-rule="evenodd" clip-rule="evenodd" d="M127.468 54.9508C128.244 52.7526 130.677 48.4503 129.706 46.8061C128.298 47.2422 128.189 49.6774 127.32 51.6726C125.381 56.0192 125.912 54.935 127.468 54.9508Z" fill="#E8D9BC"/>
<path fill-rule="evenodd" clip-rule="evenodd" d="M158.235 67.9818C158.246 68.3274 159.404 76.0048 159.542 76.2433C160.963 75.2022 160.248 74.1368 160.276 71.8442C160.336 69.7955 160.246 68.6419 159.205 67.4859C158.885 67.6342 158.448 67.7067 158.235 67.9818Z" fill="#E8D9BC"/>
<path fill-rule="evenodd" clip-rule="evenodd" d="M124.364 51.2491L125.575 51.5404C126.229 50.6388 126.655 48.7415 127.222 47.7435C128.157 46.0786 129.424 46.2224 128.301 44.6803C126.415 45.128 124.901 48.9245 124.364 51.2491Z" fill="#E8D9BC"/>
<path fill-rule="evenodd" clip-rule="evenodd" d="M173.778 174.99C176.372 174.972 174.402 174.637 175.501 169.861C175.948 167.994 176.052 168.675 175.646 167.512C174.879 167.784 175.045 167.076 174.48 168.603C174.354 168.975 174.119 170.302 174.06 170.739C173.911 171.899 173.78 173.907 173.778 174.99Z" fill="#E8D9BC"/>
<path fill-rule="evenodd" clip-rule="evenodd" d="M120.188 155.035C121.17 153.538 121.582 148.758 121.176 147.199C119.799 147.747 120.326 148.696 119.956 150.71C119.156 155.175 118.726 154.404 120.188 155.035Z" fill="#E8D9BC"/>
<path fill-rule="evenodd" clip-rule="evenodd" d="M91.8537 246.325C90.2276 246.798 90.7078 247.447 90.3081 249.746C89.9584 251.79 89.5788 252.376 90.5287 253.593C91.8478 252.532 91.2324 252.569 91.5308 250.383C91.7544 248.71 92.2596 247.62 91.8537 246.325Z" fill="#E8D9BC"/>
<path fill-rule="evenodd" clip-rule="evenodd" d="M86.8048 123.473C87.0167 121.322 87.8895 119.038 86.782 117.816C85.6097 118.668 86.0148 119.699 85.6751 121.692C85.1849 124.317 84.8654 124.597 86.8048 123.473Z" fill="#E8D9BC"/>
<path fill-rule="evenodd" clip-rule="evenodd" d="M87.8584 165.92C89.5199 165.402 89.0377 165.703 89.3665 163.496C89.6055 161.879 89.8946 161.619 89.3365 160.426C88.0863 160.735 88.1288 161.324 87.8639 162.804C87.5639 164.462 87.407 164.722 87.8584 165.92Z" fill="#E8D9BC"/>
<path fill-rule="evenodd" clip-rule="evenodd" d="M106 230.592C108.024 230.515 107.444 230.507 107.774 228.564C108.028 227.003 108.657 226.361 108.318 225.131C107.377 225.21 108.178 224.364 107.245 225.475C106.734 226.061 106.145 229.723 106 230.592Z" fill="#E8D9BC"/>
<path fill-rule="evenodd" clip-rule="evenodd" d="M177.474 176.087C178.551 175.586 178.512 174.574 178.871 172.479C179.156 170.765 179.403 170.18 178.607 169.125C177.811 169.946 177.093 174.533 177.474 176.087Z" fill="#E8D9BC"/>
<path fill-rule="evenodd" clip-rule="evenodd" d="M91.0129 167.888C92.4413 167.615 92.7271 166.297 92.4568 164.448C92.3058 163.335 92.3734 163.798 91.9241 163.26C90.6551 164.067 90.383 166.523 91.0129 167.888Z" fill="#E8D9BC"/>
<path fill-rule="evenodd" clip-rule="evenodd" d="M123.278 159.21C123.799 158.176 124.191 153.631 123.801 152.392C123.421 152.713 123.544 151.681 123.078 153.649L122.582 157.778C122.574 160.101 122.509 158.688 123.278 159.21Z" fill="#E8D9BC"/>
<path fill-rule="evenodd" clip-rule="evenodd" d="M111.243 248.003C112.829 247.866 113.249 247.077 113.381 243.986C112.136 244.137 112.115 243.842 111.692 245.317C111.521 245.918 111.378 247.316 111.243 248.003Z" fill="#E8D9BC"/>
<path fill-rule="evenodd" clip-rule="evenodd" d="M94.4693 248.346C93.9149 249.954 93.5139 253.467 94.6206 254.425C95.1238 252.675 95.4997 249.288 94.4693 248.346Z" fill="#E8D9BC"/>
<path fill-rule="evenodd" clip-rule="evenodd" d="M128.525 56.2948C129.811 55.9404 129.791 56.0421 130.188 54.5617C130.49 53.4324 130.675 52.4915 130.503 51.3482C129.263 51.606 129.014 54.7532 128.525 56.2948Z" fill="#E8D9BC"/>
<path fill-rule="evenodd" clip-rule="evenodd" d="M144.723 23.1614C143.692 23.6981 144.046 23.2396 143.557 24.649C145.003 24.96 144.113 24.9168 145.327 24.5219C145.458 23.9929 145.566 24.384 145.416 23.6677C145.406 23.5864 145.272 23.1903 145.236 23.104L144.934 22.4898C145.863 21.933 145.727 22.3553 145.993 21.0075L144.862 20.4414C144.532 20.905 144.258 20.9566 144.352 21.8205C144.358 21.9272 144.394 22.0135 144.424 22.1252C144.435 22.2065 144.486 22.3487 144.497 22.43C144.527 22.5418 144.574 22.7094 144.61 22.7957C144.645 22.882 144.692 23.0496 144.723 23.1614Z" fill="#E8D9BC"/>
<path fill-rule="evenodd" clip-rule="evenodd" d="M149.487 22.8579L149.595 24.596C150.682 24.176 150.677 24.2015 151.217 22.9342C152.491 23.7133 153.045 23.5847 153.288 21.6777C151.818 21.4939 152.358 21.838 151.642 22.2518C150.358 23.0028 150.727 22.3358 149.487 22.8579Z" fill="#E8D9BC"/>
<path fill-rule="evenodd" clip-rule="evenodd" d="M43.4037 152.598C45.1333 152.675 45.6719 149.267 44.7984 148.065C43.992 148.805 44.2765 148.702 43.9457 150.248C43.6599 151.566 43.4004 151.541 43.4037 152.598Z" fill="#E8D9BC"/>
<path fill-rule="evenodd" clip-rule="evenodd" d="M110.598 230.732C110.926 229.607 112.123 227.017 111.37 225.468C110.218 226.219 110.695 225.943 110.599 227.509C110.461 229.146 110.031 229.722 110.598 230.732Z" fill="#E8D9BC"/>
<path fill-rule="evenodd" clip-rule="evenodd" d="M89.9293 125.594C90.7361 124.987 90.7311 125.012 91.001 123.507C91.2259 122.23 91.2906 121.767 90.4951 121.109C90.1538 122.574 89.5443 124.462 89.9293 125.594Z" fill="#E8D9BC"/>
<path fill-rule="evenodd" clip-rule="evenodd" d="M142.703 32.6169C143.648 32.3803 143.718 32.1564 144.392 31.1531L143.881 30.3921C142.402 30.7878 141.91 31.1399 142.703 32.6169Z" fill="#E8D9BC"/>
<path fill-rule="evenodd" clip-rule="evenodd" d="M147.376 27.5405C147.655 28.9426 147.292 28.2371 148.078 29.0787C148.961 28.4865 149.154 28.5774 149.425 27.2041C148.284 26.8211 147.985 26.9999 147.376 27.5405Z" fill="#E8D9BC"/>
<path fill-rule="evenodd" clip-rule="evenodd" d="M162.357 49.3246C161.981 47.8769 162.59 48.8156 160.991 48.3424C160.668 49.0448 160.271 50.7895 161.73 50.3634C162.202 50.2451 162.507 49.9087 162.357 49.3246Z" fill="#E8D9BC"/>
<path fill-rule="evenodd" clip-rule="evenodd" d="M156.19 43.5933C157.18 43.1279 157.211 43.1074 157.598 41.6779C155.383 40.8456 155.444 42.5483 156.19 43.5933Z" fill="#E8D9BC"/>
<path fill-rule="evenodd" clip-rule="evenodd" d="M151.859 37.8007C152.198 37.4185 151.947 38.2935 152.385 37.0062C152.612 36.3905 152.516 36.4772 152.61 35.8618C150.448 35.5682 149.954 37.0031 151.859 37.8007Z" fill="#E8D9BC"/>
<path fill-rule="evenodd" clip-rule="evenodd" d="M138.699 29.1871C139.636 29.3978 139.881 29.631 140.412 28.9432C141.203 27.8836 140.149 27.7291 139.645 27.4713C138.899 28.1698 138.995 27.8188 138.699 29.1871Z" fill="#E8D9BC"/>
<path fill-rule="evenodd" clip-rule="evenodd" d="M157.571 63.8358L156.769 62.8062C156.52 62.995 156.336 62.5889 155.856 63.6832C155.17 65.2915 156.625 65.4194 157.571 63.8358Z" fill="#E8D9BC"/>
<path fill-rule="evenodd" clip-rule="evenodd" d="M94.0264 171.916C93.6564 170.707 94.3238 172.688 94.8178 169.641C94.9421 168.741 94.9351 168.106 94.8212 167.476C94.2209 169.048 93.2334 170.439 94.0264 171.916Z" fill="#E8D9BC"/>
<path fill-rule="evenodd" clip-rule="evenodd" d="M146.138 38.1273C146.569 39.4274 145.91 38.3465 146.808 39.2894L148.128 38.6248L147.753 37.3093C146.711 37.5004 146.655 37.5158 146.138 38.1273Z" fill="#E8D9BC"/>
<path fill-rule="evenodd" clip-rule="evenodd" d="M146.354 35.8189C147.554 35.6324 147.854 35.4537 148.38 34.6592L147.589 33.843C146.462 34.3343 146.355 34.4718 146.354 35.8189Z" fill="#E8D9BC"/>
<path fill-rule="evenodd" clip-rule="evenodd" d="M129.212 33.6064L129.789 34.4333C131.228 34.1089 131.261 33.4022 130.581 32.4231C130.16 32.5514 130.312 32.3171 129.87 32.6793C129.332 33.1282 129.566 32.8835 129.212 33.6064Z" fill="#E8D9BC"/>
<path fill-rule="evenodd" clip-rule="evenodd" d="M152.328 33.4024C153.758 33.6575 153.306 33.8062 154.065 32.6349C154.065 32.6349 153.686 31.6092 152.812 31.8862C151.968 32.1428 152.215 32.9045 152.328 33.4024Z" fill="#E8D9BC"/>
<path fill-rule="evenodd" clip-rule="evenodd" d="M157.471 46.487C156.559 47.7605 157.341 47.2804 157.383 47.6056L158.868 47.581C158.956 46.5946 159.145 46.711 158.501 45.8182C158.237 45.9511 157.582 46.3241 157.471 46.487Z" fill="#E8D9BC"/>
<path fill-rule="evenodd" clip-rule="evenodd" d="M152.2 29.8903C153.313 29.6075 153.252 29.6483 153.839 28.6808C152.675 27.0779 151.712 28.2091 152.2 29.8903Z" fill="#E8D9BC"/>
<path fill-rule="evenodd" clip-rule="evenodd" d="M126.954 37.0187C127.872 36.2485 127.487 36.7274 127.829 35.2625C126.862 35.2043 126.48 34.9969 126.127 35.8519C125.733 36.7782 126.343 36.7663 126.954 37.0187Z" fill="#E8D9BC"/>
<path fill-rule="evenodd" clip-rule="evenodd" d="M157.526 62.5854C158.833 62.3936 158.73 62.1092 159.104 61.4168C158.501 60.4527 159.357 60.9383 158.156 60.7282C157.298 61.3255 156.998 61.2399 157.526 62.5854Z" fill="#E8D9BC"/>
<path fill-rule="evenodd" clip-rule="evenodd" d="M135.64 33.3133L136.462 34.2412C137.481 33.3588 137.518 33.5773 137.234 32.2006C136.008 32.2499 136.201 32.2086 135.64 33.3133Z" fill="#E8D9BC"/>
<path fill-rule="evenodd" clip-rule="evenodd" d="M121.216 38.24C123.189 38.2851 123.216 37.2074 121.53 36.3735C120.918 37.336 120.749 36.9858 121.216 38.24Z" fill="#E8D9BC"/>
<path fill-rule="evenodd" clip-rule="evenodd" d="M139.822 36.9104C141.21 36.8403 141.613 37.078 141.349 35.5996C141.303 35.5641 141.057 34.9345 140.245 35.435C139.458 35.9405 139.758 36.0261 139.822 36.9104Z" fill="#E8D9BC"/>
<path fill-rule="evenodd" clip-rule="evenodd" d="M45.0726 144.659C45.2912 144.622 46.6161 145.412 46.2674 142.886C43.7865 143.269 44.97 144.374 45.0726 144.659Z" fill="#E8D9BC"/>
<path fill-rule="evenodd" clip-rule="evenodd" d="M153.807 36.3617C155.243 36.7235 155.466 36.6619 155.716 35.126C154.382 34.7842 154.006 34.948 153.807 36.3617Z" fill="#E8D9BC"/>
<path fill-rule="evenodd" clip-rule="evenodd" d="M47.0137 140.841C47.9882 140.187 47.8055 140.31 48.0963 138.967C46.2345 138.891 45.8503 139.634 47.0137 140.841Z" fill="#E8D9BC"/>
<path fill-rule="evenodd" clip-rule="evenodd" d="M142.741 26.9185C142.532 28.383 142.32 27.4433 143.122 28.4728C143.122 28.4728 144.418 28.1997 144.247 27.3208C144.088 26.6553 143.324 26.505 142.741 26.9185Z" fill="#E8D9BC"/>
<path fill-rule="evenodd" clip-rule="evenodd" d="M153.638 26.211C154.716 25.974 154.956 26.2326 154.84 24.9418C154.84 24.9418 154.362 23.6063 153.522 24.788C153.193 25.2515 153.556 25.957 153.638 26.211Z" fill="#E8D9BC"/>
<path fill-rule="evenodd" clip-rule="evenodd" d="M158.8 42.1523C158.825 42.1573 158.833 43.057 159.894 42.3677C160.742 41.8213 160.375 41.5377 160.276 40.9636C159.076 41.0179 158.689 40.836 158.8 42.1523Z" fill="#E8D9BC"/>
<path fill-rule="evenodd" clip-rule="evenodd" d="M156.465 32.262C157.496 31.9896 157.618 31.9079 157.97 30.6564C156.138 30.2957 155.875 30.6929 156.465 32.262Z" fill="#E8D9BC"/>
<path fill-rule="evenodd" clip-rule="evenodd" d="M158.253 34.9916C158.253 34.9916 156.936 34.8378 158.38 36.4959C159.351 36.2643 159.331 36.2339 159.541 35.1658C158.252 34.463 159.173 34.75 158.253 34.9916Z" fill="#E8D9BC"/>
<path fill-rule="evenodd" clip-rule="evenodd" d="M140.846 24.5908C141.504 23.5315 141.587 23.9176 141.115 22.6889C140.51 22.8075 140.189 22.6915 139.932 23.3277C139.523 24.3302 140.215 24.3079 140.846 24.5908Z" fill="#E8D9BC"/>
<path fill-rule="evenodd" clip-rule="evenodd" d="M135.235 29.192C137.517 30.0902 137.242 28.5305 136.217 27.6947C135.456 28.2052 135.45 27.9663 135.235 29.192Z" fill="#E8D9BC"/>
<path fill-rule="evenodd" clip-rule="evenodd" d="M133.25 33.5033C135.072 33.7827 135.085 33.0455 134.47 31.7359C133.49 32.2826 133.397 31.8152 133.25 33.5033Z" fill="#E8D9BC"/>
<path fill-rule="evenodd" clip-rule="evenodd" d="M133.723 36.7399C135.299 36.5219 134.4 36.926 135.17 35.9682C134.825 34.5001 135.27 35.3274 134.414 34.8419C133.557 35.5713 133.577 35.7339 133.723 36.7399Z" fill="#E8D9BC"/>
<path fill-rule="evenodd" clip-rule="evenodd" d="M148.35 33.3326C149.259 32.7454 149.229 32.898 149.22 31.6018C147.246 31.5566 147.142 32.2228 148.35 33.3326Z" fill="#E8D9BC"/>
<path fill-rule="evenodd" clip-rule="evenodd" d="M169.496 158.878C170.521 158.235 170.451 158.458 170.345 157.117C169.444 157.124 169.286 156.855 169.024 157.649C168.767 158.418 169.475 158.848 169.496 158.878Z" fill="#E8D9BC"/>
<path fill-rule="evenodd" clip-rule="evenodd" d="M154.962 37.8832C154.318 38.734 154.348 38.3171 154.666 39.3837C155.917 39.3394 156.237 39.191 156.137 38.0883L154.962 37.8832Z" fill="#E8D9BC"/>
<path fill-rule="evenodd" clip-rule="evenodd" d="M126.163 34.5911C127.047 34.2633 126.633 35.0269 127.356 33.7693C128.125 32.4149 127.087 32.4484 127.067 32.418C126.165 33.3762 126.408 33.2129 126.163 34.5911Z" fill="#E8D9BC"/>
<path fill-rule="evenodd" clip-rule="evenodd" d="M149.775 41.4057L150.565 42.0896C151.346 41.4774 151.657 41.6442 151.343 40.4201C150.122 40.444 150.407 40.2093 149.775 41.4057Z" fill="#E8D9BC"/>
<path fill-rule="evenodd" clip-rule="evenodd" d="M132.197 28.6467L133.664 29.1203L133.526 27.4026C132.407 27.4465 132.381 27.1771 132.197 28.6467Z" fill="#E8D9BC"/>
<path fill-rule="evenodd" clip-rule="evenodd" d="M156.492 28.0937C156.655 27.9407 157.516 28.4008 157.255 26.2361C155.008 26.6391 156.457 28.0073 156.492 28.0937Z" fill="#E8D9BC"/>
<path fill-rule="evenodd" clip-rule="evenodd" d="M170.151 155.547C172.402 154.59 170.849 154.02 170.849 154.02C170.091 154.24 170.628 153.263 170.051 154.444C169.268 156.007 169.998 155.252 170.151 155.547Z" fill="#E8D9BC"/>
<path fill-rule="evenodd" clip-rule="evenodd" d="M80.0587 993.101C86.0341 992.898 91.4293 992.55 97.1146 992.811C102.336 993.072 110.487 993.043 115.708 992.782C113.736 1004.41 94.6491 1010.67 86.3531 1001.97C84.7287 1000.29 80.3777 995.478 80.0587 993.101ZM42.5239 991.246C44.9025 991.246 47.02 992.028 49.8046 992.057C52.6183 992.115 54.7938 992.318 57.5494 992.434C62.9447 992.695 67.9048 992.869 73.5031 992.898C72.4299 999.623 62.7126 1003.1 57.1433 1003.01C47.252 1002.9 46.7879 996.029 42.5239 991.246ZM125.251 992.231C131.256 992.318 137.347 991.304 143.467 991.188C146.571 991.13 149.994 991.101 153.04 990.869C156.056 990.637 159.479 989.97 162.003 989.883C159.885 996.058 153.011 1001.48 145.121 1002.84C138.681 1003.97 133.46 1000.41 128.906 996.782C127.079 995.333 125.947 994.231 125.251 992.231ZM159.16 945.473C167.108 945.821 168.152 946.517 170.705 959.33C171.575 963.794 171.865 971.708 170.734 976.317C170.299 978.085 168.964 979.418 169.69 980.955C173.547 980.201 173.228 965.765 173.083 963.301C172.619 954.691 170.038 951.358 168.442 946.662C171.169 947.241 175.897 948.053 177.347 950.082C178.566 951.764 178.508 955.271 178.827 957.648C179.204 960.199 179.494 959.764 179.987 959.967C181.321 958.895 180.567 958.257 180.364 956.025C180.219 954.17 179.842 952.459 179.842 950.865C183.845 952.256 189.907 956.054 192.895 958.576L201.336 965.62C202.786 966.751 203.221 966.577 203.656 968.461C199.77 972.2 189.617 977.331 184.396 979.36C174.331 983.245 172.59 984.752 161.481 986.376C155.563 987.245 138.681 987.042 133.837 988.028C126.237 989.564 113.561 990.028 105.353 989.477C91.5453 988.55 74.6634 990.579 61.4073 989.158C56.7082 988.666 51.9801 988.956 47.368 988.115C39.3622 986.665 30.6892 984.288 23.7275 981.68C15.5476 978.607 15.7507 979.36 7.36772 975.273C6.29447 974.751 5.80135 974.722 4.61207 974.201L2.40756 972.345L12.3569 965.794C14.4744 964.113 19.9276 959.156 22.0451 958.489C21.32 961.475 19.1445 963.62 18.4193 967.069C17.8392 969.736 17.259 975.331 18.8834 977.389C21.8421 975.853 18.0422 973.389 20.4498 966.2C22.1612 961.127 22.9153 960.373 25.758 957.3C30.6311 951.967 36.5195 948.575 44.0323 947.56C65.4393 944.662 88.5286 948.72 110.574 946.256C120.784 945.096 141.495 943.821 151.125 944.951C155.302 945.473 156.549 944.662 159.798 950.024C164.033 956.924 166.035 963.997 165.803 972.345C165.745 974.403 165.281 976.259 165.019 978.346C164.7 980.781 163.337 982.578 163.424 983.68C167.862 982.897 167.688 968.142 166.905 963.446C166.325 959.822 165.339 956.953 163.975 953.967C163.395 952.604 162.583 950.981 161.8 949.676C160.436 947.299 159.972 947.85 159.16 945.473ZM92.6766 884.337C95.3742 881.873 108.108 881.612 111.096 881.612C110.516 882.714 111.067 881.844 110.458 882.598L109.094 883.873C108.398 884.54 107.905 885.062 107.238 885.873C106.542 886.743 105.208 888.192 105.091 889.265C104.888 891.033 105.033 889.729 105.382 890.222C107.209 892.019 113.126 885.091 113.474 884.83C114.316 884.134 115.041 883.496 115.969 882.482C122.322 882.279 131.198 887.062 135.52 889.671C142.22 893.758 143.99 897.005 148.457 903.411C149.472 904.89 150.313 905.933 151.183 907.557C154.113 912.89 154.983 915.209 157.217 921.268L163.047 942.053C152.953 941.821 142.307 940.458 131.865 941.009C122.176 941.56 112.227 942.603 102.655 943.125C90.298 943.792 83.5975 942.922 72.1688 942.487C51.8931 941.734 53.7785 943.763 42.5239 943.995L49.0214 923.935C50.6168 920.485 52.4442 915.586 54.7358 912.89C55.5189 911.963 55.4029 911.905 55.925 911.064C58.1295 907.557 60.7111 904.571 63.2637 901.614C66.3385 898.106 67.1507 896.831 71.4727 893.497C75.5046 890.366 83.7425 885.178 88.9637 884.772C90.24 886.859 91.9514 889.903 94.0979 890.28C94.9391 886.627 94.475 887.091 92.6766 884.337ZM166.296 872.626C172.996 870.539 179.523 878.394 175.433 883.206C174.621 884.163 172.3 885.352 170.821 885.902C168.065 886.946 166.789 886.772 164.961 885.207C163.975 884.337 161.887 882.656 161.249 881.554C158.87 877.438 161.887 874.017 166.296 872.626ZM47.7161 852.972C49.3695 852.247 51.661 853.175 53.4885 854.015C55.2869 854.856 56.2151 856.073 57.4044 857.465C57.8975 858.074 58.6807 859.088 58.8837 859.755C62.0745 869.872 48.1802 869.466 45.8307 863.871C44.7574 861.32 44.7864 857.175 45.9467 854.798C46.9619 852.711 46.1498 853.667 47.7161 852.972ZM61.0012 862.712C64.221 862.915 69.6452 865.784 72.1978 867.988C75.3886 870.77 84.7287 876.916 86.5562 882.018C79.5365 884.134 72.778 886.946 68.1659 891.062C54.3007 903.411 46.9619 915.818 41.9148 933.936C41.2186 936.458 39.3042 942.951 39.4202 944.777C33.6768 946.227 23.0024 953.532 18.2162 957.097C17.5201 957.619 16.7369 958.257 16.0697 958.779L9.07912 964.692C6.58453 966.664 0.841196 970.142 0 972.867C2.05948 973.998 5.91738 976.954 8.38295 978.085L17.4331 982.81C25.3809 986.984 32.6036 988.144 36.9546 989.883C38.695 990.579 38.9271 992.347 40.5224 995.391C46.7009 1007.22 63.9019 1008.15 73.6192 1001.71C75.2725 1000.61 76.6069 998.783 78.1732 998.087C79.2755 998.985 80.8999 1001.25 82.2342 1002.64C90.153 1010.84 104.685 1011.1 114.084 1004.78C115.94 1003.54 117.129 1002.46 118.667 1000.78C119.885 999.478 120.088 998.406 120.9 996.637L122.147 994.985C127.398 1003.45 143.438 1009.86 155.389 1004.03C157.391 1003.07 162.438 1000 163.743 998.145L167.369 992.376C168.326 990.637 168.297 990.956 168.239 988.521C171.372 988.028 186.804 981.911 189.704 980.317C192.692 978.723 206.818 970.722 207.804 968.983C208.153 966.519 208.153 966.953 206.818 965.736C205.745 964.779 205.803 964.2 204.962 963.272C203.743 961.91 203.714 963.185 200.408 959.243C198.812 957.329 195.506 954.894 193.156 953.648C191.503 952.749 188.109 949.097 179.465 945.879L169.428 942.951C164.874 942.024 164.816 943.473 163.192 931.124C162.612 926.544 163.772 923.326 160.059 915.383C159.537 914.282 159.305 914.427 158.783 913.209C155.969 906.629 158.203 909.76 153.069 901.759L147.354 894.164C144.889 891.323 143.38 890.077 139.871 887.96C132.793 883.728 129.747 882.511 120.929 879.757C125.889 873.408 150.313 873.118 157.739 876.075L158.493 876.713C158.667 879.612 158.841 880.916 160.755 883.38C161.655 884.511 164.178 887.062 165.803 887.758C167.601 888.54 171.952 889.236 173.489 887.671C174.708 886.424 172.735 887.439 175.955 885.438C177.347 884.54 177.173 884.308 177.898 882.714C180.103 877.96 179.494 878.278 178.276 876.133C175.056 870.365 172.242 869.698 166.006 870.828C161.539 871.64 162.293 872.365 159.798 874.046C148.66 870.365 148.718 871.814 136.825 871.669C132.561 871.611 130.066 871.64 124.874 873.901C122.641 874.858 119.798 876.249 117.97 877.322C113.881 879.786 114.316 878.22 109.588 878.51C103.438 878.916 96.9116 880.626 90.9072 881.003C86.2951 873.234 84.7578 872.771 78.7243 867.466C72.4009 861.958 69.2972 861.146 61.3493 858.711C61.0012 855.581 60.247 853.928 58.3906 852.595C50.0947 846.507 41.7987 852.334 41.4217 857.755C40.6965 867.872 55.4609 871.785 59.2898 865.9L61.0012 862.712Z" fill="#E8D9BC"/>
<path fill-rule="evenodd" clip-rule="evenodd" d="M85.3379 926.399C84.5547 924.863 84.8738 926.08 83.6265 924.718C87.7744 925.384 89.1668 926.225 90.5591 930.399C91.8644 934.371 88.7897 935.965 84.8738 935.907C83.0463 932.718 82.4952 929.53 85.3379 926.399ZM82.9883 923.79L79.4785 928.515C76.4038 938.023 92.8506 942.458 96.6215 933.24C97.1436 931.965 96.9116 931.675 96.3894 930.544C96.1574 930.022 95.1132 927.79 94.9681 927.616L90.269 924.254C88.7317 923.703 84.4677 923.007 82.9883 923.79Z" fill="#E8D9BC"/>
<path fill-rule="evenodd" clip-rule="evenodd" d="M139.348 926.515C143.525 925.326 147.209 928.892 147.731 931.675C148.167 933.762 147.296 934.284 146.571 935.414C140.19 936.226 137.521 931.965 139.348 926.515ZM138.014 924.689C135.926 925.906 135.723 928.486 136.361 930.515C138.797 938.168 153.388 943.067 152.111 931.907C151.589 927.529 152.924 928.689 149.907 926.399C148.631 925.442 148.631 924.138 144.338 924.341C140.393 924.544 139.61 923.79 138.014 924.689Z" fill="#E8D9BC"/>
<path fill-rule="evenodd" clip-rule="evenodd" d="M113.416 925.848C115.998 926.37 117.738 927.182 119.131 929.24C120.059 930.66 118.29 927.529 119.45 929.79C123.946 938.4 105.12 939.531 113.416 925.848ZM111.908 924.37C104.076 929.53 110.69 940.864 120.233 938.342C123.25 937.53 122.989 937.298 123.395 934.197C124.033 929.675 123.627 926.776 118.116 924.747C116.578 924.167 113.59 923.239 111.908 924.37Z" fill="#E8D9BC"/>
<path fill-rule="evenodd" clip-rule="evenodd" d="M56.7372 928.979C56.4472 926.631 57.9265 923.239 60.073 923.326C62.1035 923.442 64.163 926.602 64.482 928.602C65.3522 934.197 57.7525 937.414 56.7372 928.979ZM56.6502 921.732C55.4609 922.891 54.5037 923.616 53.8076 925.616C53.1984 927.298 53.1114 929.791 53.8656 931.385C56.4762 936.98 68.9781 940.719 66.1064 926.486C65.8454 925.181 63.9599 923.007 63.2057 922.486C61.6684 921.355 58.8547 921.645 56.6502 921.732Z" fill="#E8D9BC"/>
<path fill-rule="evenodd" clip-rule="evenodd" d="M77.303 980.056C78.1442 977.94 72.4299 970.925 77.8541 957.474C79.7976 952.691 80.8998 953.416 81.2479 951.329C77.187 951.706 75.0405 961.127 74.4894 964.316C73.6772 968.751 73.3581 978.984 77.303 980.056Z" fill="#E8D9BC"/>
<path fill-rule="evenodd" clip-rule="evenodd" d="M32.1395 981.274C35.6783 980.404 31.4143 977.36 34.489 966.519C35.0982 964.316 35.7073 961.968 36.5195 959.938C38.782 954.315 40.1164 956.837 39.1301 954.663C36.2585 954.112 34.228 962.402 33.0387 965.417C31.9365 968.2 30.8922 978.404 32.1395 981.274Z" fill="#E8D9BC"/>
<path fill-rule="evenodd" clip-rule="evenodd" d="M121.161 976.549C123.656 975.65 122.263 976.983 123.279 971.968C124.265 967.272 124.41 957.996 121.567 954.923C119.508 955.88 120.639 956.257 121.335 958.866C123.337 966.316 121.161 970.548 121.161 976.549Z" fill="#E8D9BC"/>
<path fill-rule="evenodd" clip-rule="evenodd" d="M25.3519 979.303C27.5274 978.636 26.3091 977.824 26.2221 974.925C26.1351 972.577 26.8893 966.403 27.6724 964.403C28.0205 963.475 28.2526 963.185 28.7457 962.431C29.7899 960.837 29.6159 962.373 29.4999 960.489C24.8878 960.17 23.1764 975.94 25.3519 979.303Z" fill="#E8D9BC"/>
<path fill-rule="evenodd" clip-rule="evenodd" d="M69.7613 903.179C71.6467 903.498 71.8787 898.28 76.1717 895.179C77.8541 893.961 78.6083 894.628 79.3335 892.917C77.6511 891.091 74.9245 894.483 73.2711 896.164C72.5169 896.947 69.5582 900.918 69.4132 902.136C69.1521 904.223 69.1811 902.426 69.7613 903.179Z" fill="#E8D9BC"/>
<path fill-rule="evenodd" clip-rule="evenodd" d="M185.469 972.461C187.413 972.026 186.745 972.519 187.471 970.374C187.877 969.157 188.312 968.49 188.457 967.185C189.182 960.17 184.28 958.924 185.701 961.881C186.339 963.214 186.716 963.272 186.891 965.04C187.297 968.606 185.991 969.446 185.469 972.461Z" fill="#E8D9BC"/>
<path fill-rule="evenodd" clip-rule="evenodd" d="M39.6522 966.664C38.1149 967.185 39.2751 966.2 38.2309 967.62C36.9546 969.418 36.1424 977.505 37.8538 977.679C39.4782 977.853 38.3759 974.172 38.521 972.316C38.666 970.229 40.0003 968.258 39.6522 966.664Z" fill="#E8D9BC"/>
<path fill-rule="evenodd" clip-rule="evenodd" d="M176.68 980.839C179.262 980.781 179.61 978.201 180.364 975.766C181.118 973.244 182.365 970.432 179.987 969.417C179.639 970.258 179.494 974.345 179.059 976.085C178.392 978.636 176.883 979.505 176.68 980.839Z" fill="#E8D9BC"/>
<path fill-rule="evenodd" clip-rule="evenodd" d="M81.8861 974.664C82.9013 973.592 82.5242 974.172 82.2052 972.171C82.0311 970.896 81.9731 970.316 82.1181 969.012C82.3212 967.272 82.9593 965.214 83.1044 963.562C81.8861 963.562 81.9731 964.084 81.538 965.359C81.0449 966.838 80.3487 970.635 80.5518 972.258C80.7258 973.737 80.8128 974.375 81.8861 974.664Z" fill="#E8D9BC"/>
<path fill-rule="evenodd" clip-rule="evenodd" d="M49.6015 960.054C51.0809 958.518 49.2825 959.591 50.8488 955.793C51.8061 953.474 53.0534 954.112 52.2412 952.401C49.7176 953.242 47.6001 959.359 49.6015 960.054Z" fill="#E8D9BC"/>
<path fill-rule="evenodd" clip-rule="evenodd" d="M191.59 971.331C193.243 970.229 193.243 966.316 192.779 965.127C192.228 963.794 192.315 964.084 191.097 963.765C191.184 965.562 191.677 965.765 191.706 967.62C191.735 969.389 191.039 970.258 191.59 971.331Z" fill="#E8D9BC"/>
<path fill-rule="evenodd" clip-rule="evenodd" d="M93.6338 956.866C95.8383 955.561 93.6628 957.416 94.7651 952.894C95.1132 951.416 95.9544 950.807 94.9391 949.792C93.6338 950.459 93.8369 951.068 93.4598 952.749C93.3437 953.271 93.1407 954.228 93.1117 954.749C92.9957 956.663 93.2567 956.373 93.6338 956.866Z" fill="#E8D9BC"/>
<path fill-rule="evenodd" clip-rule="evenodd" d="M127.166 936.632C128.442 936.545 127.659 937.009 128.935 935.037C129.573 934.052 129.515 934.603 129.921 933.008L128.645 932.081L127.92 934.023C127.862 934.139 127.804 934.226 127.775 934.313C127.05 935.53 126.179 934.921 127.166 936.632Z" fill="#E8D9BC"/>
<path fill-rule="evenodd" clip-rule="evenodd" d="M77.187 901.643C79.5075 901.585 80.1457 897.585 79.8846 896.86C78.8114 897.266 79.7106 896.541 78.9564 897.527C78.5503 898.106 77.187 900.599 77.187 901.643Z" fill="#E8D9BC"/>
<path fill-rule="evenodd" clip-rule="evenodd" d="M53.2564 959.272C54.0396 958.634 55.2869 955.126 54.9388 954.344C53.7785 954.083 52.5022 957.909 53.2564 959.272Z" fill="#E8D9BC"/>
<path fill-rule="evenodd" clip-rule="evenodd" d="M128.007 970.635C129.08 969.968 128.935 970.287 128.877 968.49C128.819 965.678 128.007 966.026 128.007 966.026C127.572 967.156 127.224 969.417 128.007 970.635Z" fill="#E8D9BC"/>
<path fill-rule="evenodd" clip-rule="evenodd" d="M137.985 898.57C138.13 897.817 138.536 895.208 136.941 896.309C136.651 896.512 136.39 897.382 136.419 897.556C136.593 898.512 137.086 898.338 137.985 898.57Z" fill="#E8D9BC"/>
<path fill-rule="evenodd" clip-rule="evenodd" d="M130.675 995.449C131.546 995.507 131.053 995.536 131.778 995.391C132.503 995.275 133.112 993.797 131.285 993.217C130.704 993.884 130.588 994.173 130.675 995.449Z" fill="#E8D9BC"/>
<path fill-rule="evenodd" clip-rule="evenodd" d="M133.17 898.309C134.562 897.672 134.91 897.092 133.605 895.961C132.88 896.28 132.793 895.932 132.561 896.918C132.387 897.846 132.619 897.643 133.17 898.309Z" fill="#E8D9BC"/>
<path fill-rule="evenodd" clip-rule="evenodd" d="M51.603 1000.06C52.0381 999.913 52.5893 1000.41 52.6763 998.841C52.7343 997.623 52.2992 997.913 51.545 997.797C50.6458 999.015 50.8488 999.188 51.603 1000.06Z" fill="#E8D9BC"/>
<path fill-rule="evenodd" clip-rule="evenodd" d="M135.723 997.942C136.564 996.724 136.709 995.42 134.504 995.623C134.736 997.42 134.533 997.333 135.723 997.942Z" fill="#E8D9BC"/>
<path fill-rule="evenodd" clip-rule="evenodd" d="M131.053 937.588C131.72 937.791 131.633 937.82 132.532 937.125C132.271 935.472 132.648 936.4 131.459 935.501C129.718 937.617 131.053 937.588 131.053 937.588Z" fill="#E8D9BC"/>
<path fill-rule="evenodd" clip-rule="evenodd" d="M41.2476 976.114C42.785 975.911 43.3361 975.244 42.0888 974.114C41.4507 973.534 42.0598 973.998 41.0446 973.621L41.2476 976.114Z" fill="#E8D9BC"/>
<path fill-rule="evenodd" clip-rule="evenodd" d="M85.3379 996.782C85.86 996.493 86.3241 996.869 86.3821 995.507C86.4692 993.768 85.976 994.463 85.4829 994.231C84.8158 995.565 84.7868 995.623 85.3379 996.782Z" fill="#E8D9BC"/>
<path fill-rule="evenodd" clip-rule="evenodd" d="M135.317 903.092C137.26 902.918 137.144 901.411 135.839 900.831C135.142 901.614 134.678 901.788 135.317 903.092Z" fill="#E8D9BC"/>
<path fill-rule="evenodd" clip-rule="evenodd" d="M88.4996 1000.29C89.3408 1000.03 89.4859 1000.41 89.6309 999.333C89.8049 998.029 88.9057 998.261 88.4996 998.174C87.6874 999.391 87.7745 999.159 88.4996 1000.29Z" fill="#E8D9BC"/>
<path fill-rule="evenodd" clip-rule="evenodd" d="M48.1222 996.348C49.3985 995.681 49.2825 994.956 48.5283 993.942C47.6001 994.26 47.9772 993.246 47.6291 994.724C47.339 996.087 47.9772 996.145 48.1222 996.348Z" fill="#E8D9BC"/>
<path fill-rule="evenodd" clip-rule="evenodd" d="M140.886 900.657C142.452 900.338 142.249 900.136 142.423 898.657C140.654 898.454 140.393 899.295 140.886 900.657Z" fill="#E8D9BC"/>
<path fill-rule="evenodd" clip-rule="evenodd" d="M132.793 893.178C134.185 893.12 134.04 893.033 134.272 891.613L133.17 890.975C132.561 891.874 132.445 892.28 132.793 893.178Z" fill="#E8D9BC"/>
<path fill-rule="evenodd" clip-rule="evenodd" d="M52.1832 994.84C54.0106 993.942 53.4014 993.188 51.9801 992.521C51.458 993.884 51.313 993.826 52.1832 994.84Z" fill="#E8D9BC"/>
<path fill-rule="evenodd" clip-rule="evenodd" d="M140.248 994.811L141.408 995.13C141.872 993.971 141.785 993.826 141.321 992.666C139.726 993.594 140.915 993.594 140.248 994.811Z" fill="#E8D9BC"/>
<path fill-rule="evenodd" clip-rule="evenodd" d="M98.3619 954.778C98.797 953.793 98.855 952.923 97.9268 951.445C97.6947 951.967 97.5787 951.822 97.6657 952.923C97.6657 953.039 97.8108 953.851 97.8688 953.967C98.1298 954.749 98.1298 954.46 98.3619 954.778Z" fill="#E8D9BC"/>
<path fill-rule="evenodd" clip-rule="evenodd" d="M179.175 964.895C180.161 964.432 180.161 964.432 180.625 963.504C179.9 962.692 180.596 963.272 179.552 962.953C178.711 963.91 178.711 963.591 179.175 964.895Z" fill="#E8D9BC"/>
<path fill-rule="evenodd" clip-rule="evenodd" d="M88.7317 995.71C89.4568 996.348 88.8477 996.087 90.037 996.261L90.124 994.347C88.8767 994.724 88.9927 994.463 88.7317 995.71Z" fill="#E8D9BC"/>
<path fill-rule="evenodd" clip-rule="evenodd" d="M129.167 889.323C129.225 888.018 129.254 888.279 128.703 887.497C127.485 888.279 127.456 889.265 129.167 889.323Z" fill="#E8D9BC"/>
<path fill-rule="evenodd" clip-rule="evenodd" d="M92.3575 1001.48C93.3727 1000.81 93.7788 1001.36 92.7926 999.913C91.6323 1000.41 91.5163 1000.32 92.3575 1001.48Z" fill="#E8D9BC"/>
<path fill-rule="evenodd" clip-rule="evenodd" d="M56.2731 998.261C57.1433 997.507 56.7082 996.956 56.5342 996.261C55.925 996.927 55.548 997.101 56.2731 998.261Z" fill="#E8D9BC"/>
</svg>
